<?xml version="1.0" encoding="UTF-8"?>
<svg id="Layer_1" xmlns="http://www.w3.org/2000/svg" version="1.1" viewBox="0 0 200 200">
  <!-- Generator: Adobe Illustrator 30.2.1, SVG Export Plug-In . SVG Version: 2.1.1 Build 1)  -->
  <defs>
    <style>
      .st0 {
        fill: #fff;
      }

      .st1 {
        fill: #f93;
      }
    </style>
  </defs>
  <rect width="200" height="200"/>
  <g>
    <polygon class="st1" points="84.2 139.6 53.9 123.8 53.8 95.4 84 111.2 84.2 139.6"/>
    <polygon class="st1" points="64.1 150.4 33.8 134.6 27 109.9 57.2 125.7 64.1 150.4"/>
    <polygon class="st1" points="70.4 89.7 40.2 73.9 46.4 42.7 76.6 58.5 70.4 89.7"/>
    <polygon class="st1" points="76.6 58.5 46.4 42.7 72.9 28.4 103.1 44.2 76.6 58.5"/>
    <polygon class="st1" points="38.8 164 8.6 148.1 8.1 63.2 38.3 79.1 38.8 164"/>
    <polygon class="st1" points="103.1 44.2 103.6 129.1 84.2 139.6 84 111.2 77.2 143.4 64.1 150.4 57.2 125.7 57.4 154 38.8 164 38.3 79.1 63.2 65.7 70.4 89.7 76.6 58.5 103.1 44.2"/>
    <polygon class="st1" points="38.3 79.1 8.1 63.2 33 49.8 63.2 65.7 38.3 79.1"/>
  </g>
  <polygon class="st0" points="103.1 44.2 103.6 129.1 84.2 139.6 84 111.2 77.2 143.4 64.1 150.4 57.2 125.7 57.4 154 38.8 164 38.3 79.1 63.2 65.7 70.4 89.7 76.6 58.5 103.1 44.2"/>
  <g>
    <polygon class="st0" points="172.5 141.1 142.2 125.2 142 96.9 172.3 112.7 172.5 141.1"/>
    <polygon class="st0" points="152.4 151.9 122.1 136 115.3 111.3 145.5 127.2 152.4 151.9"/>
    <polygon class="st0" points="158.7 91.2 128.5 75.4 134.7 44.1 164.9 59.9 158.7 91.2"/>
    <polygon class="st0" points="164.9 59.9 134.7 44.1 161.2 29.9 191.4 45.7 164.9 59.9"/>
    <polygon class="st0" points="127.1 165.4 96.9 149.6 96.4 64.7 126.6 80.5 127.1 165.4"/>
    <polygon class="st0" points="191.4 45.7 191.9 130.6 172.5 141.1 172.3 112.7 165.4 144.8 152.4 151.9 145.5 127.2 145.7 155.5 127.1 165.4 126.6 80.5 151.5 67.1 158.7 91.2 164.9 59.9 191.4 45.7"/>
    <polygon class="st0" points="126.6 80.5 96.4 64.7 121.3 51.3 151.5 67.1 126.6 80.5"/>
  </g>
  <polygon class="st1" points="191.4 45.7 191.9 130.6 172.5 141.1 172.3 112.7 165.4 144.8 152.4 151.9 145.5 127.2 145.7 155.5 127.1 165.4 126.6 80.5 151.5 67.1 158.7 91.2 164.9 59.9 191.4 45.7"/>
</svg>