<?xml version="1.0" encoding="UTF-8"?>
<svg id="Layer_1" xmlns="http://www.w3.org/2000/svg" xmlns:xlink="http://www.w3.org/1999/xlink" version="1.1" viewBox="0 0 800 800">
  <!-- Generator: Adobe Illustrator 30.1.0, SVG Export Plug-In . SVG Version: 2.1.1 Build 136)  -->
  <defs>
    <style>
      .st0 {
        fill: #c4d2dc;
      }

      .st1 {
        fill: #ddeff1;
      }

      .st2 {
        fill: #c0cad5;
      }

      .st3 {
        fill: #edeff4;
      }

      .st4 {
        fill: #50687f;
      }

      .st5 {
        fill: #e4e5e7;
      }

      .st6 {
        fill: #304356;
      }

      .st7 {
        fill: #f5f6f9;
      }

      .st8 {
        fill: #6a87a1;
      }

      .st9 {
        fill: #e8ecf2;
      }

      .st10 {
        fill: #556781;
      }

      .st11 {
        fill: #596984;
      }

      .st12 {
        fill: #f4f7f9;
      }

      .st13 {
        fill: #c9d7de;
      }

      .st14 {
        fill: #d2dce3;
      }

      .st15 {
        fill: #a6b7c8;
      }

      .st16 {
        fill: #768ca0;
      }

      .st17 {
        fill: #7d91a7;
      }

      .st18 {
        fill: #66829c;
      }

      .st19 {
        fill: #dfe4ea;
      }

      .st20 {
        fill: #d9dbe1;
      }

      .st21 {
        fill: #bcc7d5;
      }

      .st22 {
        fill: #a7b4c3;
      }

      .st23 {
        fill: #102f55;
      }

      .st24 {
        fill: #8299b7;
      }

      .st25 {
        fill: #b0bdcb;
      }

      .st26 {
        fill: #b0c4d2;
      }

      .st27 {
        fill: #e0e5eb;
      }

      .st28 {
        fill: #cbd9e3;
      }

      .st29 {
        fill: #c1cedb;
      }

      .st30 {
        fill: #8998a8;
      }

      .st31 {
        fill: #8ea0b2;
      }

      .st32 {
        fill: #bbc6d0;
      }

      .st33 {
        fill: #829cb8;
      }

      .st34 {
        fill: #ccd7e0;
      }

      .st35 {
        fill: #62748a;
      }

      .st36 {
        fill: #28485e;
      }

      .st37 {
        fill: #ccd1e0;
      }

      .st38 {
        fill: #d7dfe7;
      }

      .st39 {
        fill: #40566f;
      }

      .st40 {
        fill: #a7b6c3;
      }

      .st41 {
        fill: #7c8da3;
      }

      .st42 {
        fill: #98a8b8;
      }

      .st43 {
        fill: #485a73;
      }

      .st44 {
        fill: #cfdae4;
      }

      .st45 {
        fill: #c1d3df;
      }

      .st46 {
        fill: #afc0cc;
      }

      .st47 {
        fill: #bac8d7;
      }

      .st48 {
        fill: #7b8ca0;
      }

      .st49 {
        fill: #325d70;
      }

      .st50 {
        fill: #384f78;
      }

      .st51 {
        fill: #29486d;
      }

      .st52 {
        fill: #53667f;
      }

      .st53 {
        fill: #d7e3ea;
      }

      .st54 {
        fill: #c3cedb;
      }

      .st55 {
        fill: #4b5e77;
      }

      .st56 {
        fill: #5e748d;
      }

      .st57 {
        fill: #cad7df;
      }

      .st58 {
        fill: #7f92a6;
      }

      .st59 {
        fill: #687c93;
      }

      .st60 {
        fill: #aeb9c7;
      }

      .st61 {
        fill: #cad3dc;
      }

      .st62 {
        fill: #bbcad5;
      }

      .st63 {
        fill: #00080f;
      }

      .st64 {
        fill: #5b6d84;
      }

      .st65 {
        fill: #63788e;
      }

      .st66 {
        fill: #b2c5ce;
      }

      .st67 {
        fill: #edf0f3;
      }

      .st68 {
        fill: #d4dce4;
      }

      .st69 {
        fill: #e0e4e9;
      }

      .st70 {
        fill: url(#linear-gradient);
      }

      .st71 {
        fill: #c5d0da;
      }

      .st72 {
        fill: #f6f7f9;
      }

      .st73 {
        fill: #acbfce;
      }

      .st74 {
        fill: #778ea3;
      }

      .st75 {
        fill: #a4b8c8;
      }

      .st76 {
        fill: #c0ccd8;
      }

      .st77 {
        fill: #cfdce4;
      }

      .st78 {
        fill: #192d42;
      }

      .st79 {
        fill: #e8ecf0;
      }

      .st80 {
        fill: #70829c;
      }

      .st81 {
        fill: #8aa4b9;
      }

      .st82 {
        fill: #d5e3e4;
      }

      .st83 {
        fill: #1a3b5a;
      }

      .st84 {
        fill: #d6dde5;
      }

      .st85 {
        fill: #99afbe;
      }

      .st86 {
        fill: #d6dee6;
      }

      .st87 {
        fill: #becdd6;
      }

      .st88 {
        fill: #c8d6de;
      }

      .st89 {
        fill: #c3d4dd;
      }

      .st90 {
        fill: #bac5d1;
      }

      .st91 {
        fill: #aeb9c4;
      }

      .st92 {
        fill: #c8d4df;
      }

      .st93 {
        fill: #c0d3dc;
      }

      .st94 {
        fill: #abb8c7;
      }

      .st95 {
        fill: #c4d3de;
      }

      .st96 {
        fill: #708faf;
      }

      .st97 {
        fill: #b7c9d3;
      }

      .st98 {
        fill: #12354d;
      }

      .st99 {
        fill: #576c86;
      }

      .st100 {
        fill: #8397a9;
      }

      .st101 {
        fill: #f9fafc;
      }

      .st102 {
        fill: #0a1a42;
      }

      .st103 {
        fill: #cedce4;
      }

      .st104 {
        fill: #bacdd5;
      }

      .st105 {
        fill: #7e95a7;
      }

      .st106 {
        fill: #8ca4c2;
      }

      .st107 {
        fill: #4d6076;
      }

      .st108 {
        fill: #4b657e;
      }

      .st109 {
        fill: #8296a9;
      }

      .st110 {
        fill: #536a89;
      }

      .st111 {
        fill: #b1c1cd;
      }

      .st112 {
        fill: #5b728e;
      }

      .st113 {
        fill: #234574;
      }

      .st114 {
        fill: #a8b4c1;
      }

      .st115 {
        fill: #708197;
      }

      .st116 {
        fill: #8895a8;
      }

      .st117 {
        fill: #61718a;
      }

      .st118 {
        fill: #556984;
      }

      .st119 {
        fill: #acbbcc;
      }

      .st120 {
        fill: #839bad;
      }

      .st121 {
        fill: #495871;
      }

      .st122 {
        fill: #556986;
      }

      .st123 {
        fill: #526886;
      }

      .st124 {
        fill: #a2b4c3;
      }

      .st125 {
        fill: #485f8b;
      }

      .st126 {
        fill: #91a1b3;
      }

      .st127 {
        fill: #a9b7c6;
      }

      .st128 {
        fill: #52647a;
      }

      .st129 {
        fill: #abb7c3;
      }

      .st130 {
        fill: #8597ac;
      }

      .st131 {
        fill: #eff2f6;
      }

      .st132 {
        fill: #a2b1c2;
      }

      .st133 {
        fill: #bac6cf;
      }

      .st134 {
        fill: #3c516b;
      }

      .st135 {
        fill: #b6c3d0;
      }

      .st136 {
        fill: #a8b5c2;
      }

      .st137 {
        fill: #8f9ec0;
      }

      .st138 {
        fill: #e1e7ec;
      }

      .st139 {
        fill: #a9bac9;
      }

      .st140 {
        fill: #27506a;
      }

      .st141 {
        fill: #8196ac;
      }

      .st142 {
        fill: #97a5b6;
      }

      .st143 {
        fill: #375e76;
      }

      .st144 {
        fill: #cad5df;
      }

      .st145 {
        fill: #d3dae2;
      }

      .st146 {
        fill: #d5dfe5;
      }

      .st147 {
        fill: #bbc6d1;
      }

      .st148 {
        fill: #bdc8d5;
      }

      .st149 {
        fill: #355c75;
      }

      .st150 {
        fill: #60768b;
      }

      .st151 {
        fill: #fefefe;
      }

      .st152 {
        fill: #2a4d77;
      }

      .st153 {
        fill: #5e738d;
      }

      .st154 {
        fill: #a9b7c3;
      }

      .st155 {
        fill: #899cb2;
      }

      .st156 {
        fill: #060f1e;
      }

      .st157 {
        fill: #dde4eb;
      }

      .st158 {
        fill: #60738e;
      }

      .st159 {
        fill: #3f5268;
      }

      .st160 {
        fill: #e4e9ef;
      }

      .st161 {
        fill: #aeb8c4;
      }

      .st162 {
        fill: #809bb0;
      }

      .st163 {
        fill: #899da8;
      }

      .st164 {
        fill: #093150;
      }

      .st165 {
        fill: #c8d7df;
      }

      .st166 {
        fill: #255470;
      }

      .st167 {
        fill: #a2afbb;
      }

      .st168 {
        fill: #899baf;
      }

      .st169 {
        fill: #b2beca;
      }

      .st170 {
        fill: #d6dfe8;
      }

      .st171 {
        fill: #a8bbca;
      }

      .st172 {
        fill: #edf1f5;
      }

      .st173 {
        fill: #8c9aaa;
      }

      .st174 {
        fill: #2a415c;
      }

      .st175 {
        fill: #fbfcfd;
      }

      .st176 {
        fill: #b3bcd0;
      }

      .st177 {
        fill: #c7d0db;
      }

      .st178 {
        fill: #d5e2e9;
      }

      .st179 {
        fill: #bbccd7;
      }

      .st180 {
        fill: #486f8f;
      }

      .st181 {
        fill: #869bae;
      }

      .st182 {
        fill: #b7c8d4;
      }

      .st183 {
        fill: #f0f3f6;
      }

      .st184 {
        fill: #48607d;
      }

      .st185 {
        fill: #2d4a6f;
      }

      .st186 {
        fill: #82a0b7;
      }

      .st187 {
        fill: #bec9d4;
      }

      .st188 {
        fill: #aec0cd;
      }

      .st189 {
        fill: #b3c3d1;
      }

      .st190 {
        fill: #80a0b4;
      }

      .st191 {
        fill: #77899f;
      }

      .st192 {
        fill: #f9fafb;
      }

      .st193 {
        fill: #edf0f4;
      }

      .st194 {
        fill: #dfe3e9;
      }

      .st195 {
        fill: #a5bac7;
      }

      .st196 {
        fill: #2d4a70;
      }

      .st197 {
        fill: #d1dbe3;
      }

      .st198 {
        fill: #95adb9;
      }

      .st199 {
        fill: #2e4762;
      }

      .st200 {
        fill: #95a7b8;
      }

      .st201 {
        fill: #32445d;
      }

      .st202 {
        fill: #eaf0f4;
      }

      .st203 {
        fill: #fdfefe;
      }

      .st204 {
        fill: #4b5f7a;
      }

      .st205 {
        fill: #d4e1e9;
      }

      .st206 {
        fill: #a5b5c4;
      }

      .st207 {
        fill: #33455f;
      }

      .st208 {
        fill: #8ea5b9;
      }

      .st209 {
        fill: #b1bccc;
      }

      .st210 {
        fill: #c5cfdc;
      }

      .st211 {
        fill: #164e7c;
      }

      .st212 {
        fill: #c3ccd5;
      }

      .st213 {
        fill: #ced9e1;
      }

      .st214 {
        fill: #acc2d2;
      }

      .st215 {
        fill: #dadce3;
      }
    </style>
    <linearGradient id="linear-gradient" x1="626.8" y1="138.8" x2="752.9" y2="181.1" gradientUnits="userSpaceOnUse">
      <stop offset="0" stop-color="#4d6076"/>
      <stop offset="1" stop-color="#7f8fa2"/>
    </linearGradient>
  </defs>
  <g id="Generative_Object">
    <path class="st33" d="M620.6,554.9c-.2.7-.4,1.1-1.1,1.6s-.9,1.3-1.5,0c-.3-.3-.4-.8-.5-1.3s.2-1.1.8-1c1-.3,1.5.5,2.3.8Z"/>
    <g>
      <path class="st202" d="M338.2,485l-58.5,61.9c-.5.5-2.1.8-1.2,1.7l-112.4,119.5-46.1,48.8-79.9,83.7H-.5v-79.8l109.3-112.2,69.6-71.5c8.8.5,17.6-1.5,26.8-2.1l16.7-.9,25-26.6c2.2-2.3,4.3-3.8,7.1-5.5s1.4-2.5,2.9-1.8c1-.1.8.8,1,1.5l45.8-12,20.6-4.9c2.4-.6,4.7-1.4,6-3.1-.5,3.1,6-.6,8,3.4Z"/>
      <path class="st64" d="M748.9-.5c0,.4-.1,1-.7,1.7l-42.8,47.8-46.9,51,12.6-42.6c.5-1.8,1.1-3.2,1-4.7,1.9-3.5,2.6-7.9,3.6-11.8L707.4-.5h41.5Z"/>
      <path class="st203" d="M-.5,513.4v-9.4h164.4c-2.1,3.8-5.3,6.2-7.9,9-2.1-.3-4.5.4-7.3.4H-.5Z"/>
      <path class="st99" d="M496.2-.5l-1.4,18.8c-.7,9.9-1.6,19.2-3.3,28.9l-9.1,51.6c-2.9,16.4-4.5,31.9-5.4,48.5-1.2,23.9-3,14.1-3.5,17-.8,4.9,5.1,8.7-3.1,15.1,1.7-18.1,3-30.7,6.1-49.2.9-5.1,1.2-9.8,1.6-15.2-2.4,2.9-2.4,6.2-3.1,9.7-2.4,13.4-3.7,26.4-5.3,39.9-.6,5.1-1,9.8.6,14.9-2.3,1.8-4.5,4.6-6.9,7.1l-23.8,24.7c-2.4,2.5-3.4,5-4,8.3-1.6,8.7-2,17.4-2.4,26.1l-.5,12.5c0,1.1-1.5,2-1.4,2.9-2.8,1.2-11.1,11.5-13.8,12.6-4.5,1.9-9,.8-13.5,1.3s-5.4,1.7-8.2,0c-.1.7-1.4.8-2.1,1.5l-27.9,30.6c-3.7,4.1-7.3,7.3-11,10.8,0,0,0-.4-.2-1.1,15.1-14.1,27.1-28.8,40.7-42.5,4.9-1.4,10.5.9,14.7-.7s5.1,5.3,21-14.6c.9-1.2,1-4.2,1-5.8l1-47,31.2-34.7c2.2-2.4.9-6.6,1.7-9.3-1.7.7-2,2.1-3.1,3.2l-11.1,11.5-4.1,3.9c-1.1,1-1.5,2.4-2.7,3.5-6.6,5.9-11.3,13.2-18,18.4.1-.7-.2-1.4.6-1.9s1-.2,1.7-.9l8.6-9.4c3.7-4.1,27-28.7,27.2-29.7,3-13.5,2.9-27.9,5.3-41.9,1.3-3.2,5.4-4.9,6.6-8.4,2.9-8.5,13.4-66.7,13.8-75l1.3-28.2c.1-2.9.4-5.5,1.3-7.8h3.1Z"/>
      <path class="st187" d="M511.1-.5c.2.9.2,1.8,0,3.3l-14.4,96.1-6.7.2c-.7,0-1,2.3-2.2,1.5l9.6-57,1.7-12.2c.5-3.5.4-7,.6-10.5l.8-10.6c.3-3.6,0-7.3.4-10.7h10.2Z"/>
      <path class="st193" d="M602.6-.5c-.1,2.2-3.3,3.3-3.9,5.5s-1.9,2.7-3.4,4.5l-3.2,3.7c-.7-1.2.5-1.5-.3-1.7s-.7-.3-1-.3c-.6,0-3.6,3.7-3.9,5.5-4.3,2.3-6.9,9-11.7,10.6,1,.5.8,1.2.4,1.7s-.1,0-1.1.3l-11.6,13.3c.3.3.2.5,0,.8-.5.1-1-.1-1.1-.5-.3-.6.6-1.1,0-1.9-.8.3-.3,1.5-1,1.6s-.7,0-1.1,0-.5,0-.7,0c-.5-1.2-2.8-1.1-1.3-2.4s.9-2.4,2.5-.8l1.1-3.9c.2-.2.4-.7.8-.7,2,0,2.7-1.7,3.1-3.2,1.3-5.3,4.6-4.6,10.7-12.6s-.1-2.3,1-2.8,1.4.2,2-.3c3.5-3.3,5.5-7.3,9.1-9.4s2.8-1.2,3.8-3.3,2.7-2.1,2.4-3.7h8.6Z"/>
      <path class="st61" d="M271.1,440.5c-1.6,1.9-2.9,4.5-5,6.2s-4.4,5-6.7,7.1c-4,3.6-7.6,7.1-10.8,11s-5.2,4.6-7.7,8.5l40.2-4.1c1.1-.1,2,0,2.4.5,1.5.5-8.9,11.9-9.8,12.8l-15.3,16.2c-.4.4-1.6-.3-1.7.1s0,.7,0,1.2c-1.5-.7-1.9,1.3-2.9,1.8-2.8,1.7-4.9,3.2-7.1,5.5l-25,26.6-16.7.9c-9.1.5-18,2.5-26.8,2.1l37.4-39.6,21.1-22.5,11.3-11c6.8-6.6,13.3-13.1,19.2-20.5,1.3-1.6,2.6-2,3.7-2.9Z"/>
      <g>
        <path class="st79" d="M493.1-.5c-.9,2.4-1.2,5-1.3,7.8l-1.3,28.2c-.4,8.4-10.9,66.6-13.8,75s-5.3,5.2-6.6,8.4c-2.4,14-2.3,28.4-5.3,41.9s-23.5,25.7-27.2,29.7l-8.6,9.4c-.6.7-1.3.7-1.7.9-.9.5-.5,1.2-.6,1.9-2.4-2.4-1.9,15.3-1.6,13.7l1.6-13.7c6.6-5.2,11.4-12.5,18-18.4s1.6-2.5,2.7-3.5l4.1-3.9,11.1-11.5c1.1-1.1,1.4-2.5,3.1-3.2-.8,2.7.4,6.9-1.7,9.3l-31.2,34.7-1,47c0,1.5,0,4.6-1,5.8-15.9,19.9-15.9,12.6-21,14.6s-9.8-.7-14.7.7c-13.6,13.7-25.5,28.4-40.7,42.5.3.7.2,1,.2,1.1-6.8,6.3-12.1,14.2-19.7,20.5s-7.1,9-10.4,11.3c3.3,0,4.1-2.8,5.8-4.7l22-24c1-1.1,2-1.9,2.3-3.1,3.7-3.4,7.3-6.7,11-10.8l27.9-30.6c.7-.8,2-.9,2.1-1.5,2.8,1.7,5.5.3,8.2,0,4.5-.5,9,.6,13.5-1.3s11-11.4,13.8-12.6c.7,1.7,1.6,5.9.2,7.6-3.4,4.3-7.1,8.1-10.8,11.8s-.8.8-1,1.1,0,1.6.7,1.2c-.6,1.7-2.6,2.4-3.8,4s.7,1.6.7,2.2c-.7,0-1,.7-1.4,1.1,0,.6-.3.3-.7.1-2.4-.3-3,3.2-4.7,4.1-2.9,1.5-4,4-6.2,6.1l-5.5,5.3c-2,1.9-3.8,5-5.7,6.1s-3.3,3.3-4.5,5.6-5.7,5.6-8.2,9.2-2.1,2.6-3.8,2.3-1.5,1-1.6,1.6c-4.2,3.5-6.5,6.8-11.2,11.8l-19.3,20.3c-1.8,1.9-4.2,2.9-5.5,5.4s-2.3,2.8-3.4,4l-13.3,14-14,14.9c-2.4,2.6-4.6,5.2-6.8,7.7-1.3,1.4-3.3,2.3-4.7,3.9l-7.8,8.7c-1.8,2-4,3-5.6,5.3-3.6,5.3-8.5,9.3-12.3,14-1.1.9-2.5,1.3-3.7,2.9-5.9,7.4-12.4,14-19.2,20.5l-11.3,11c-1.3-10.4-23.5,14.8-27,18.9-.3.1-7.6,6.6-6.2,7.2-1.1,1.6-1.5,2.7-3,4.1l-9.7,9-31.9.3c-.9,0-1.7,0-1.6-.9l8.2-9.1,26.8-.4c.4,0,1.1-.9,1-1.1s-.9-.7-1.1-.4-.5.6-1,.5c-8.1-1.3-15.6,0-23.7-.7.6-1.1,2.4-1.5,1.4-3.1-1.9,1.5-3.1,4-5.8,3.9l-5.1-.3c-3.5-.2-7.6-.7-11,0s-4,.8-6.3,0-5.7.5-8.6.2-5.7-.3-8.8,0-5.6-1.2-8.2,0-5.1.2-7.5-.4c-3.4-.8-7.1,1.7-9.6.4s-3.7.2-5.6.2H-.5C-.5,503.3-.5-.5-.5-.5h493.6Z"/>
        <g>
          <path class="st144" d="M157.4,513.4c-.6.7-2.1.7-2.5,1.2-1,1.2-2.1,3.4-3.5,4.2l2.7-4.6H-.5v-.8h149.3c2.7,0,5.1-.7,7.3-.4,2.6-2.8,5.8-5.1,7.9-8.9H-.5v-.8h92.7c1.9-.2,3.3-1.4,5.6-.3s6.2-1.3,9.6-.4,5.2,1.5,7.5.4,5.6.2,8.2,0,5.9-.3,8.8,0,6.2-1.1,8.6-.2,4.1.5,6.3,0c3.4-.6,7.5-.1,11,0l5.1.3c2.7.1,3.9-2.4,5.8-3.9,1,1.6-.8,2-1.4,3.1,8.1.6,15.7-.6,23.7.7s.7-.1,1-.5,1,0,1.1.4-.7,1.1-1,1.1l-26.8.4-8.2,9.1Z"/>
          <path class="st127" d="M346.1,127.8h-1l12.9-80.3c1.5-9.5,2.5-18.7,5.2-27.7l-10,63.5-7.2,44.5Z"/>
          <path class="st76" d="M147.3,487.6c-1.3.2-.8,1.7-.8,2.6-1.6,1.8-3.4,5.4-6.3,5.9s-5.2-3.6-4.9-6.4,2.2-4.7,5.2-5.2,5,1.2,6.7,3.1Z"/>
          <path class="st38" d="M410.3,165.6c2.3-1,4.6.4,5.8,1.9,1.7,2.3,0,4.9-2,6.1s-4.9.3-5.9-1.7-.4-5.3,2.1-6.3Z"/>
          <path class="st99" d="M354.6,317.9c-.3,1.1-1.3,2-2.3,3.1l-22,24c-1.7,1.9-2.5,4.7-5.8,4.7,3.3-2.3,9.2-10.2,10.4-11.3,7.6-6.3,12.9-14.2,19.7-20.5Z"/>
          <path class="st21" d="M218,450.4c-5.1,2.3-1.7,2.1-3.3,4s-1-.1-1.4-.5c-.6.9-.5,1.1-.7,1.3-.4.4-1,.5-1.1,0s.3-1.1.9-1.7l13.8-13.6c.4-.4,1,1.6.7,1.9s-.6.8-1.6.7c-1.8,2.7-4,6.5-7.3,8Z"/>
          <path class="st29" d="M180.1,490.7c-1.9,2.2-5.6,3.8-8.6,6.1,1.9-1.3,13.2-15.7,13.4-11.9s-.3,1.1-.9,1.2c-2.3.5-2.7,3.2-3.8,4.5Z"/>
          <path class="st44" d="M199,443.5c1.1.6,2,.7,2.4,1.7s-.4,1.9-1.4,2.8-2.7,2-4.3,1-2.1-2.5-1-4.2,2.4-2.2,4.4-1.2Z"/>
          <path class="st92" d="M415.8,103.1c1.4-.1,2.4.9,2.7,1.8.5,1.3-1.1,2.7-2,3s-2.9-.5-3.1-1.7,1.1-3,2.5-3.1Z"/>
          <path class="st196" d="M322,350.2c1.1-.7,2.2.4,2.5,1.2s-.2,2.2-1.1,2.8-2.3.1-2.9-.9.4-2.4,1.5-3Z"/>
          <path class="st99" d="M426.7,202.8l-1.6,13.7c-.3,1.6-.8-16.1,1.6-13.7Z"/>
          <path class="st210" d="M364.9,5.6c-.1-.9,2.7-2.5-.5,8.9-1.3-3.3.9-5.6.5-8.9Z"/>
          <path class="st211" d="M346.1,127.8c.4,1,1.2,1.7.5,2.6s-1.4.8-2.2.3-.7-1.3-.4-2,.5-.8,1.2-.9h1Z"/>
          <path class="st8" d="M126.5,423.2c.6-.4,1.3,0,1.5.4s.2,1,0,1.3c-.4.6-1.2.8-1.4.5-.6-.7-.8-1.7,0-2.2Z"/>
          <path class="st189" d="M157.6,424.2c.6-.8,1.3-.5,1.9-.2s.4,1.3-.3,2-.6.3-1.3,0-1-1.1-.3-1.9Z"/>
          <path class="st50" d="M92.5,490.9c.9-.8,1.8,0,1.9.6.3.8.1,1.2-.2,1.5-.7.6-1.6.6-2,.3-.6-.5-.7-1.5.3-2.3Z"/>
          <path class="st156" d="M146.6,490.2c0-.9-.5-2.4.8-2.6.5.6,2.5.6,1.1,1.7s-1.1,1.3-1.9.9Z"/>
          <path class="st45" d="M113.4,424.4c-1.9,0-2.5-.4-1.2-1.5.6-.4,1.4-.4,1.9-.2.7.2.8,1.6-.7,1.7Z"/>
          <path class="st135" d="M363.7,19.1c-.7-1.1-.7-2.5,0-4,.7,1.1.7,2.5,0,4Z"/>
          <path class="st63" d="M171.8,471.3c.4-.3.9.3,1,.4.6.5.2.9-.2,1.4s-.7.3-1.4-.2-.4-.8.6-1.6Z"/>
          <path class="st102" d="M359.2,260.5c.8-.9,1.5-.5,1.7,0s0,.9-.4,1.2-1.2.2-1.3-1.1Z"/>
          <path class="st96" d="M230.1,438.2c-.6.5-.9-.6-.7-1s.6-.5,1.2-1.2c.7.5.6,1.2-.5,2.2Z"/>
          <circle class="st159" cx="235" cy="432.1" r=".9"/>
          <circle class="st111" cx="125.3" cy="462.5" r=".8"/>
        </g>
      </g>
      <path class="st192" d="M547.8,630c0-.7.8-1.5,1.6-1.6-.5.6-.6,1.5-1.6,1.6Z"/>
      <path class="st192" d="M748.2,271.1c-.3-.5,0-1.3.7-1,.2.5,0,1.3-.7,1Z"/>
      <path class="st169" d="M373.3,432.4c-2.2,1.8-3,5.3-6.1,6.8s.2,1.2,0,1.5c-4.5,4.6-9.4,9.1-14.1,14.1l-13.2,14.1c-2.6,2.7-5.2,5-7.1,7.8l-18,3c-4.1.7-8.1.8-11.9,2.2,2,6.9-.8,6.3.7,7.7l-45.8,12c-.2-.7,0-1.6-1-1.5,0-.5-.1-.9,0-1.2.1-.5,1.3.2,1.7-.1l15.3-16.2c.9-.9,11.3-12.3,9.8-12.8l23.4-23.5-8.9,10.3c-3.2,3.7-8.1,6-10,11.8,17-3.3,34-4,49.8-10.2,6.2-2.4,11.6-7.3,17.3-10.7s9.4-17.4,18.2-14.9Z"/>
      <path class="st84" d="M429.7,384.4l-26.7,29.8c-5.3,6-11,10.9-14.5,18.2-9.3,12.2-19.3,23.8-29.9,34.6.3-.4-.3-.7-.6-.4l-4.4,4.4c-4.9,4.9-10.8,9-15.4,14-2-4-8.6-.3-8-3.4.9-1.2,1.9-2.8,2.6-4,2.7-2.3,5.2-5.1,7.8-7.9l13.3-14c4.5-4.7,9.1-9,13.4-14-.1-.5-.2-.8-.1-.9,11.2-11.3,21.9-23.2,32.5-35.3-.4-.4.2-.5.2-.7.6.1,1.4.3,1.7-.3s.6-.8.2-1.2l50-52.4c2.5,5.6.7.7,3.7,5.9-3.6,4-7.6,8-11.6,12.1l-14.2,14.7c.2.5.2.8.1.9Z"/>
      <path class="st126" d="M332.7,476.7v.8c-.7,1.2-1.6,2.8-2.6,4-1.4,1.7-3.6,2.6-6,3.1l-20.6,4.9c-1.5-1.4,1.2-.8-.7-7.7,3.8-1.4,7.8-1.5,11.9-2.2l18-3Z"/>
      <path class="st175" d="M494.3,325.1c-2.3,3.4-.7,9.7-3.6,13.1l-6.2,7v.8c-2.4,2.4-7.3,4.6-7,7l-28.2,29.5-11.8,12.6c-1.3,1.4-2.4,2.6-3.7,4.1l-15,16.4c-4,4.3-8.8,8.1-12.9,12.8s-7.3,8.1-11.3,12.1-6.9,5.9-9.4,9.5c-2.1,3-4.6,5.4-7.1,7.9l-7.8,7.7c-2.8,2.8-6.1,5.1-7.3,8.7-1.5,1.1-2.7,2.2-3.6,3.8-2.3.7-5,3-5.5,5.5-.7.5-9.1,7.7-7.8,8.6-1.2,2.4-3.8,4.7-6.3,6.7s-3.1.8-3.9,2.8-3.7,2.5-3.9,4.6l-17.9,17.4c-.4.4,0,1.1-.1,1.4l-8,9.2c.6.6,1.9-.2,1.8.9-10.6,2.7-5.1,4.4-10.2,5.7-.5-.9,1.2-.9,1.5-2-.1-2.3-5.8,2.5-6.2-.5,5.1-6,10.2-11.9,15.8-18l44.1-47.7c2.6-1.8,4.2-4.1,5.9-5.9,10.6-10.8,20.7-22.4,29.9-34.6,3.5-7.4,9.2-12.3,14.5-18.2l26.7-29.8c8.1-6.3,16.4-17.7,23.4-23.4.7.3.7,1.5,1.3,1.5,1,.1,1.7-.5,2.3-1.1l15.9-15.4c1.1-1.1,2.4-2.7,3.4-4,4.1-3.2,7.3-7.4,11.2-11.3-.7-1.6,0-1.8,1.3-1.8,1.8-1.7,3.8-3.3,5.9-3.7Z"/>
      <path class="st42" d="M558,227.9l-19.3,46.3c-1.4,3.5-4.1,6.3-6.7,9.3l-33.7,38.8c-9.2,10.6-.4,11.9-9.8,19.9s-2.3,3.3-4.1,3l6.2-7c3-3.4,1.3-9.7,3.6-13.1s2.9-6.8,5.6-9.8l29.6-33c1.4-4.4.7-8.8,2.5-12.7s1.7-2.9.3-4.2l5.8-40.8c4.4,2.1,23-6.8,20.3-.5-.5,1.3-1.9,3.3-.3,3.8Z"/>
      <path class="st48" d="M629.3,170.1c2.9-5.4,5.1-11.3,8.5-16.5,2.6.4,5.4.7,8,2.5-1.8,2.6-12.8,14.4-13.8,14.7s-1.8.3-2.7-.7Z"/>
      <g>
        <path class="st183" d="M707.4-.5l-31.7,41.5c0,0-.7-.3-.9,0l-9,11.1c-1,1.3,2,2.5,3.5,2.8s1.8-1.7,2.8-2c0,1.5-.5,2.9-1,4.7l-12.6,42.6,46.9-51L748.2,1.2c.6-.6.7-1.2.7-1.7h1.6l-54.6,61.1-39.3,43.1-9.1,30.2c2.1,0,3.1,2.3,3.2,3.2.4,4.4-4.5,5-6.8,7s-4.2,6.7-6.1,9.6c-3.4,5.2-5.7,11.1-8.5,16.5l-58.8,111.5-3.5,34.7c-.9,3.8-1,7.4-1.5,11.7l-88.1,83.4-42.9,41.7-38.4,36c-6.5,6.1-12.2,12.9-19.7,17.6-12.1,7.6-25.5,11.3-37.6,17.6s-3.1,1.2-4.4,1.6c-8.9,2.8-17.5,6.9-26.7,9.2.2-1.1-1.1-.3-1.8-.9l8-9.2,17.9-17.4c.4-.4,0-1.1.1-1.4.1-2.1,3-2.6,3.9-4.6s2.6-1.7,3.9-2.8c2.5-2,5-4.3,6.3-6.7,2.1-1.7,7.3-6.1,7.8-8.6,2-1.4,4.3-3.4,5.5-5.5,1.4-.4,3.1-2.4,3.6-3.8,3.2-2.2,6.4-5.3,8.8-8.8s4.8-4.3,7.1-6.9l7-7.8c6-6.8,14.8-15.4,21-22,4.3-4.6,8.1-9.1,11.9-13.3l56.3-59.2c1.4-1.5,2.6-1.7,2.4-3.4l3-2.5c1.6-1.3,4-2.2,4-4.5v-.8c1.8.3,2.7-1.8,4.1-3,9.5-8,.6-9.3,9.8-19.9l33.7-38.8c2.6-3,5.2-5.9,6.7-9.3l19.3-46.3,32.4-80.3c-1.7-1-.9.9-1.6,1.3s-1.5-.3-.6-1.4c-3.9-3-8.3-6.4-11.9-10.7-.6,1,3.1-8.1,4.6-7.3s9.2,10.6,12.3,11.8c.3-1.1.4-1.7.6-2.1.4-.7,1.1-.2,1.4-.4,2.1-1.6,1.4-2.9,1.1-4.6.7.2,2.3-.7,2.1-1.4-.8-.9-2.2.6-2.1,1.4-1,.4-1.1,1.8-2.4,2.9-3.3-1.6-10.5-8-11.8-11.7l36.9-65.3,12.6-21.4c-.4-1.1-.7-.5-1.7.1-2.5-5.2-6-8.7-9.4-12.5l15.5-26.7h71.2Z"/>
        <g>
          <path class="st109" d="M418.8,415.6l15-16.4c1.3-1.5,2.4-2.7,3.7-4.1l11.8-12.6,28.2-29.5c.2,1.7-1,1.9-2.4,3.4l-56.3,59.2Z"/>
          <path class="st109" d="M418.8,415.6c-3.9,4.2-7.6,8.7-11.9,13.3-6.2,6.6-15,15.2-21,22l-7,7.8c-2.3,2.6-5.1,4-7.1,6.9s-5.6,6.6-8.8,8.8c1.3-3.6,4.5-6,7.3-8.7l7.8-7.7c2.5-2.5,5-4.9,7.1-7.9,2.5-3.6,6.2-6.3,9.4-9.5s7.6-7.9,11.3-12.1,8.8-8.5,12.9-12.8Z"/>
          <path class="st147" d="M675.7,41c-1,3.9-1.8,8.2-3.6,11.8-1,.3-1.6,2.3-2.8,2s-4.6-1.5-3.5-2.8l9-11.1c.3-.3.9,0,.9,0Z"/>
          <path class="st47" d="M630.8,91.8c1.1-2,2-4.3,3.9-5.5s1.5-4,4.5-4.9c.3,1.1-7.2,10-8.4,10.3Z"/>
          <path class="st109" d="M477.4,353.1c-.3-2.4,4.6-4.6,7-7,0,2.3-2.4,3.2-4,4.5l-3,2.5Z"/>
          <g>
            <path class="st91" d="M314,525.2c0-.3-.3-1,.1-1.4l17.9-17.4c0,.3.3,1-.1,1.4l-17.9,17.4Z"/>
            <path class="st161" d="M346,492.3c-1.3-.9,7.1-8.1,7.8-8.6-.5,2.5-5.7,6.9-7.8,8.6Z"/>
            <path class="st109" d="M359.3,478.2c-1.2,2.2-3.5,4.1-5.5,5.5.5-2.6,3.1-4.8,5.5-5.5Z"/>
            <path class="st109" d="M362.9,474.4c-.5,1.4-2.2,3.3-3.6,3.8.9-1.6,2.1-2.7,3.6-3.8Z"/>
            <path class="st106" d="M366.5,496.3c.5-.6,1.2-.4,1.8-.2s.7,1,0,1.7-.7,1-1.4.4-1.2-1-.5-2Z"/>
          </g>
          <path class="st47" d="M630.8,91.8c-.6.9-1.2,1.9-2.1,2.4-.7-1.2,0-1.5.5-2s.9-.5,1.6-.4Z"/>
          <path class="st147" d="M591.2,145.8c-.6-.8-.5-1.8-.2-3.2.9.4.8,1.3.2,3.2Z"/>
          <path class="st147" d="M596.4,134.1c0-.8,1.2-2.3,2.1-1.4.3.6-1.3,1.6-2.1,1.4Z"/>
        </g>
      </g>
      <g>
        <path class="st70" d="M750.4-.5h50.1v71.5c-2.6,1.2-4.1,3.5-6.4,6l-75.4,79.9c-2.4,2.6-4.7,4.2-8.1,5.2l-29.4,30.9-66.7,71.7-40.7,43.9c-2.3,2-6.6,5.2-5.5,7.3s-.5.6-1.1.5l3.5-34.7,58.8-111.5c1,1,1.9,1,2.7.7s12-12.2,13.8-14.7c-2.7-1.7-5.5-2-8-2.5,1.9-2.9,3-7,6.1-9.6s7.2-2.5,6.8-7-1.1-3.2-3.2-3.2l9.1-30.2,39.3-43.1L750.4-.5Z"/>
        <g>
          <path class="st67" d="M800.5,72.6l-84.4,88.6c-.8.9-.5.6-2.2.8s-2,1.8-1.8,3.2c-.8,0-.8-.8-1.1-.9s-.9.3-1.3.7l-10,10.3c-3,3.1-7.9,6.3-9.5,10.1s-2.6,2.9-4.7,5.1l-68.7,73.1-22.1,24.3c-6.5,7.2-13.9,14.2-21.1,20.6l40.7-43.9,66.7-71.7,29.4-30.9c3.4-1,5.7-2.6,8.1-5.2l75.4-79.9c2.4-2.5,3.9-4.7,6.4-6v1.6Z"/>
          <path class="st60" d="M616.7,238.1c1.9-2.8,4.4-5.6,6.9-8.2l4.8-4.9c3.1-3.2,5.4-7,8.6-9.6,0,0,0,.4.2,1-7.1,7.2-13.3,15-20.5,21.7Z"/>
          <path class="st136" d="M662,138c0-2.6,2.9-3.3,3.9-5.4s10.6-11.5,11.7-13.5,2.7-2.1,3.9-3.1c.3,2.2-1.7,1.7-2.7,3.3-1.9,3.1-4.4,5.3-6.6,7.7l-5.6,6.2c-1.6,1.7-3,3.6-4.7,4.7Z"/>
          <path class="st60" d="M637,215.4c1-2.5,3.2-4.7,5.5-6.3.7,2-6.2,6.8-5.5,6.3Z"/>
          <path class="st136" d="M687.9,109c.9-2.2,2.4-4.4,4.8-5.3-1.2,2.8-3.1,3.8-4.8,5.3Z"/>
          <path class="st136" d="M681.6,116.1c-.3-1.9,2.5-3.7,3.9-4.7,0,2.2-2.4,3.5-3.9,4.7Z"/>
          <path class="st1" d="M669.8,164.7c1-.7,2.3,0,2,.6s-1.1,1.6-1.6,1.5c-.7-.2-1.6-1.3-.4-2.1Z"/>
          <path class="st136" d="M687.9,109c-.5,1.2-1.4,1.7-2.3,2.3,0-.9,0-1.4.8-2s.9-.5,1.6-.4Z"/>
          <path class="st60" d="M642.5,209.1c0-.7,0-1.2.4-1.6s.8-1.2,2.1-.5c-.9.8-1.4,1.8-2.4,2.1Z"/>
          <path class="st60" d="M616.7,238.1c-.6.5-.6,1.8-1.2,2.4-.7-.7-.4-1.3-.4-1.9s1-.3,1.6-.4Z"/>
          <path class="st136" d="M662,138c0,.8.1,1.3-.4,1.6s-.8.1-1.2-.4,0-.9.3-1.2.7,0,1.2,0Z"/>
          <circle class="st205" cx="696.6" cy="138.8" r=".8"/>
          <circle class="st82" cx="653.3" cy="185.6" r=".8"/>
        </g>
      </g>
      <g>
        <path class="st151" d="M236.9,474.9l-21.1,22.5-37.4,39.6-69.6,71.5L-.5,720.7v-196.3l127.5-.4-127.5-.4v-9.4h154.6s-2.7,4.6-2.7,4.6c1.4-.8,2.5-3,3.5-4.2s1.9-.5,2.5-1.2c0,.9.7.9,1.6.9l31.9-.3,9.7-9c1.5-1.4,1.9-2.5,3-4.1.1.4,8.1-7,6.2-7.2,3.5-4.1,25.7-29.2,27-18.9Z"/>
        <g>
          <polygon class="st46" points="-.5 524.4 -.5 523.6 127 524 -.5 524.4"/>
          <path class="st138" d="M203.7,500.9c-1.4-.5,5.9-7,6.2-7.2,1.9.2-6.1,7.6-6.2,7.2Z"/>
          <path class="st71" d="M133.4,537.5c-.9.4-.2,2.5-1.5,3.4-7.5,5.6-8.7,11.1-11.3,9,4.5-4.7,9.9-10.7,13.8-15.4,4.9,2.2,9.1-.1,13.8,1.3l-11.7.7c-.3.2-.5.9-.6,1.1-.4.5-1.8-.3-2.5,0Z"/>
          <path class="st132" d="M81.6,591.6c-1.3,4.1-5.7,5.7-7.8,9.3s-7.9,7.6-9.5,8.5c3.2-5.9,2.6-1.7,8.7-9.2s5.7-6,8.5-8.6Z"/>
          <path class="st125" d="M61.5,609.9c1.4,0,2.7.9,2.8,1.9.1,1.6-1,3.1-2.1,3.4-1.7.4-3.5-.7-3.5-2.1s1.1-3.1,2.8-3.2Z"/>
          <path class="st132" d="M81.6,591.6c-.6-1.9,7.7-8.5,9.4-9.4.4,1.3-.7,1.5-1.6,2.4l-7.7,7Z"/>
          <path class="st164" d="M153.7,535c-1.8,1.2-2.2,1.9-2.8,1.9s-1.5-.7-1.7-1.5.7-2.1,2.1-1.7,1.9,1,2.4,1.3Z"/>
          <path class="st160" d="M93.4,579.9c.2-1.8,1.6-3.7,4-3.9-1,1.8-2.5,2.6-4,3.9Z"/>
          <path class="st132" d="M93.4,579.9c-.1,1.1-1.5,1.9-2.3,2.3-.3-.9.2-1.4.8-2s1-.4,1.6-.4Z"/>
        </g>
      </g>
      <path class="st145" d="M447.3,247.3c-.6.7.6,2.3,1.4,2.7,1.5.9,4.4-1.3,4.5-4,1.1,1,1.5-1.7,3.7-1s-.2.4.4.7c-.5,5,.2,9.6,3.2,14.1,6.2,9.3,12.8,18,19.5,26.7l9,11.7c1.2,1.5,1.5,3.3,3.5,3.3-3.4,5.1-8.4,9-11.8,13.9-1.9,1.6-4.1,3-5.8,5.7s-4.2,2.6-5.4,5.3-4.3,3.5-4.7,6.1c-1.9.2-2.5,2.7-2.5,4.9l-60.6,65.6c-.5.5-1.8.5-1.9,1.5s-.6.3-.2.7c-9.4,8.6-16.7,19.2-26.3,27.1-8.8-2.5-11.3,10.9-18.2,14.9s-11.1,8.3-17.3,10.7c-15.8,6.2-32.8,6.9-49.8,10.2,1.9-5.8,6.8-8.1,10-11.8l8.9-10.3c2.9-2.9,9.3-8.3,11-11.7.2-.5.3-.7.8-.8,7.3-5.4,24.4-27.9,32.2-32.8s1.7-.4,2-1.6.6-1.9-.4-2.4c.3-.7.8-1.2,1.3-1.5,1.8-1.1,3.7-2.8,4.8-4.7,1.4,0,2-1,3.2-2.4l6.1-6.9c1.6-1.8,3.3-3,4.7-4.6,4.7-5.5,9-10.7,14.2-15.6s5.8-5.8,8.6-8.8l11-11.7c3.1-3.3,5.8-7,9.3-10.3s2.2-1.3,2.8-2.8c1.1-2.8,4.5-3.7,5.9-6.4s4-3,5.6-5.4c2.7-4.1,6.9-6.8,9.2-11,1-.8,3.5-1.5,3.8-2.9.4-2.4,3.1-1.9,3-4.3-2.4,2.6-5.3,4.5-6.8,7.3-.6.5-2.8.4-3.1,1.5-3.3-2.8-9.6-7.8-10.8-11.6,1.2-1,15.8-17.9,19.5-20.8-1.2-.9-1.5.1-2.3.5-.3-3.6-.2-6.5.3-9.8,1-6.6,0-13.4.4-20,2,0-.7,1.6,2.3,3.5s.9-.6,2-.5Z"/>
      <path class="st22" d="M496.7,98.9l-11.1,74.2c-1,6.7-2.8,11.4-7.2,16.6-6.4,7.7-12,15.5-17.9,23.5l-3.3,32.6c-.5-.4,0-.6-.4-.7-2.2-.8-2.6,2-3.7,1-1-.8-1.9-2.2-3.4-1.4s-2.3,1.5-2.4,2.8c-1.1-.1-1.5.8-2,.5-2.9-1.9-.3-3.5-2.3-3.5.3-6.9-.6-13.9.4-20.8s.7-5.2.4-7.7l35.9-38.9c2.1-2.3,4-24.1,3.8-28.3s-1-4.5-.7-7.9l.6-7.1c.2-2.2.3-4.9.6-7.3l3.9-25.8c1.2.8,1.5-1.5,2.2-1.5l6.7-.2Z"/>
      <path class="st3" d="M561.2,64.4c-1.4-.4-2.4-.7-3.5,0s-1.3,2.1-2.2,3c-13.4,12.8-5.7,6.9-6.8,9.4s-.2,2.9,1,4c-1.8,2.9-23.9,27.4-29.3,32.9-1-1.3,1-2.5-.6-3.7l-6.1,7.7c-2.3-6.7,8.2-8,1.1-10.7.9-1.3,1.5-1.2,1.5-1.6.2-1.2,0-1.3-.7-1.7-1.7-.9.6-3.3,1.7-4.1,4.2-2.8,22.7-24.7,26.5-27.4l3.4-2.3c1-.7.8-2.9,2.4-2.7s1.9-.9,2.7.3c1.6-.1,2.2,0,1.1-1.2-1.5.1-2.4-.5-1-1.5.4-.2,1,0,1.4-.3s.4-.7,0-.8-1.4-.2-1-.7c5.2-6.7,12.1-11.6,16.3-18s2-4.1.9-6.3c1,.7.4,1.6,1.1,1.9s1.4.5,1.8.2c4.4-3.3,19-17.9,21.3-22.5,2-.6,2.1-1.8,3-3,1.5-1.9,4.1-3.1,5.5-5.5,0-.4-.1-.7,0-.8.6-.4,1.1-1.5,2.3-1.5.3,4-1.2,7.6.2,12.2l-15.3,17.1-22.5,26c-.8-2.3-2.9-1.3-3.9-1.2s-1.9,2-2.2,3Z"/>
      <path class="st27" d="M519.5,245.2l-3.8,28.8c-.2,1.6-.1,3.1-.8,4.7-7,6.1-15.5,17.8-22.4,22.8-2,0-2.4-1.8-3.5-3.3l-9-11.7c1.2-5.1,10.5-9.4,11-12.4s2.7-2.5,3.2-4.2-.8-2,.5-2.5,1.3-2.5,2,.2c-.3-.7-.4-2.2.5-2.8.9-.5,2.5,0,3.1-1.1s1.4-1.2-.3-2.7l10.3-10.4c1.9-1.9,4-4,6.4-5.7l2.9.3Z"/>
      <path class="st172" d="M529.6,195.2l8.4,29.4-5.8,40.8c0,1.2-.4,2.2-1.5,3.3l-13.2,14c-1.1-1.2.3-3.5-1.7-3.9,1.2-1.4.5-3.1.8-4.8l9.7-67.2c.3-1.9,1.4-4.5-.3-5.5l1.6-4.9c.3-.8,1.6-.8,2.1-1.2Z"/>
      <path class="st120" d="M516.6,274.1h-.8l3.8-28.8,6.4-43.9c1.7,1,.6,3.6.3,5.5l-9.7,67.2Z"/>
      <path class="st213" d="M561.2,64.4c-.4,1-2.5,1.3-2,2.9.9,1.9-.4,2.5-.7-.2-1,.9-2.5,1.6-1.5,3.3s-2.5,2.6-2.7,3.8c-.4,2.9-3.5,4.7-4.8,6.6-1.2-1.2-1.9-2.1-1-4s-6.6,3.4,6.8-9.4c1-.9,1.2-2.3,2.2-3s2.2-.5,3.5,0Z"/>
      <g>
        <path class="st101" d="M533.8-.5c0,.4,0,1.2.3,1.5,0,0,1.8-1.4,1.2-1.5h3.9c0,.6.7,1.4,1.2,1.5,1.1.4,1.4-.7,1.1-1.5h49.3c-1,6.1,1,.2-3.1,7-3.5,2.1-5.5,6.1-9.1,9.4-.6.5-1.6,0-2,.3-1.1.5-.5,2.2-1,2.8-6.1,7.9-9.3,7.3-10.7,12.6-1.3.7-2.7,1.8-3.1,3.2-.3,0-.6.5-.8.7-2.1,1.7-6.1,5-7.6,8.9,1-1.7,3.1-2.3,5.3-1.9s.5,0,.7,0c-.5.4,1,1,1.1,1.6l-10.6,11.3-12,12.5c1.6.5,1.9,1,2.4,1.5.8.7,1.4,1.2,1.3,2.7s-1,.6-2.7.9c-1.1.9,0,.7,1.3,1.2-1.1,1.8-2.5,3-3.8,4.2-2.2-1.1-2.3.1-.2.8l-10,10.5c-7.5.3,2.1,0-7.8,7.9-1.1-1.2.3-1.6.3-2.1s-.9-1.1-1.4-1.2v5.5c-1.2.7-3.5,3.2-1.8,4.1s.9.5.7,1.7-.7.3-1.5,1.6c7.1,2.7-3.4,4-1.1,10.7l6.1-7.7c1.5,1.3-.5,2.5.6,3.7,5.4-5.5,27.4-30,29.3-32.9s4.3-3.8,4.8-6.6,3.7-2.1,2.7-3.8.5-2.4,1.5-3.3c.2,2.6,1.6,2.1.7.2-.5-1.6,1.6-1.9,2-2.9.3-.9.8-2.8,2.2-3s3.2-1.1,3.9,1.2l22.5-26,15.3-17.1c-1.4-4.7,0-8.2-.2-12.2-1.2,0-1.8,1.2-2.3,1.5-2.1,1.3-3.6,3.4-5.7,5.3.3.7.3.9.2,1.1-.9,1.2-1,2.4-3,3-2.8.9-4.1,4.5-6.2,6.2-.9.3-1.6,1-1.7,1.8l-11,11.6c-.5.5-1,.7-1.3.7-.6,0-1-.6-1.8-.8l.7,3c-.4.3-1.4,0-1.8-.2-.6-.3,0-1.2-1.1-1.9,1,2.2.3,4.4-.9,6.3,0-.3-1.7,1.4-1.9.5s2.9-6.1.2-2.6-1,.8-.7,2.3c-1.5-.6-2.2,0-.4.7-.8,3.2-3.6,5.7-6.6,7.1.5,2-.6,2.6-1.2.4-1.2,1.3-1,4.5-3.3,4.3s-4.8,7.3-8.6,8.3c-1.2-1.3,1-1.6.4-3.4-4.8,2.9-3,6.2-6.1,4l11.2-12.3,10.8-11.1c.3-.3.3-.5,0-.8,5.6-5.3,13.9-13.6,18.7-19.7,1.3,1.3,1.8.7,1.3-.9,1.5-1.7,3.6-3.1,4.1-5.2,1-.5,1.9-1.6,3.4-2.5.3-.6.3-2,.6-3,.3,0,.5.2,1,.3.8.2-.4.5.3,1.7l3.2-3.7c1.5-1.7,2.8-2,3.4-4.5s3.8-3.4,3.9-5.5h33.6l-15.5,26.7c-.3.5-.8,1.2-.7,1.8s1.2.9,1.7,1.6l6.2,8.6c.7,1,1.4,3.5-.2,3.9-4.7,1.3-4.6-6-10.4-10.5l-87.8,163.4c-.5.5-1.8.4-2.1,1.2l-1.6,4.9-6.4,43.9-2.9-.3c-1.8-.7-2.6,2.4-4.6,3.6-.3.9-.9.4-1.4.6s-.4,1-.4,1.5l-10.3,10.4c1.6,1.5.5,2.2.3,2.7-.6,1.2-2.2.6-3.1,1.1-.9.6-.8,2.1-.5,2.8-.7-2.7-1.4-.5-2-.2-1.3.6-.2,1.6-.5,2.5-.5,1.7-2.9,2.4-3.2,4.2-.5,3-9.8,7.2-11,12.4-6.7-8.7-13.3-17.4-19.5-26.7s-3.7-9.1-3.2-14.1l3.3-32.6c5.9-8,11.5-15.8,17.9-23.5s6.2-9.9,7.2-16.6l11.1-74.2,14.4-96.1c.2-1.5.2-2.3,0-3.3h22.7Z"/>
        <g>
          <path class="st182" d="M594-.5c.3,1.6-1.8,2.4-2.4,3.7-1,2.1-2.2,2.4-3.8,3.3,4.1-6.8,2.2-.9,3.1-7h3.1Z"/>
          <path class="st40" d="M541.6-.5c.2.8,0,1.9-1.1,1.5s-1.2-1-1.2-1.5h2.3Z"/>
          <path class="st163" d="M535.3-.5c.6.2-1.2,1.5-1.2,1.5-.4-.3-.4-1.2-.3-1.5h1.6Z"/>
          <path class="st171" d="M562.8,43.3l-10.8,11.1-11.2,12.3c3.1,2.2,1.4-1.1,6.1-4,.7,1.8-1.6,2.2-.4,3.4-.7-.6-1.2.2-1,1s.3.5,1.1.5.4-.3.4-.7-.1-.6-.5-.7c3.8-1,7.4-8.4,8.6-8.3,2.3.1,2.1-3,3.3-4.3.5,2.1,1.7,1.5,1.2-.4,3-1.5,5.8-3.9,6.6-7.1-1.8-.7-1.1-1.4.4-.7-.3-1.6.2-1.6.7-2.3,2.7-3.5-.2,2.6-.2,2.6.2.9,1.8-.8,1.9-.5-4.2,6.4-11,11.3-16.3,18-.3.4.8.6,1,.7s.4.6,0,.8-.9,0-1.4.3c-1.4,1-.5,1.6,1,1.5,1.1,1.3.6,1.1-1.1,1.2-.8-1.1-1.9-.2-2.7-.3-1.6-.2-1.4,2.1-2.4,2.7l-3.4,2.3c-3.8,2.6-22.3,24.6-26.5,27.4v-5.5c.6.1,1.5.8,1.5,1.2s-1.4.8-.3,2.1c10-7.9.3-7.5,7.8-7.9l10-10.5c-2-.6-2-1.8.2-.8,1.3-1.2,2.7-2.4,3.8-4.2-1.3-.5-2.4-.2-1.3-1.2,1.7-.2,2.6-.2,2.7-.9.1-1.5-.4-1.9-1.3-2.7s-.8-1-2.4-1.5l12-12.5,10.6-11.3c0-.6-1.5-1.1-1.1-1.6.4,0,.8,0,1.1,0,.7,0,.2-1.3,1-1.6.6.8-.2,1.3,0,1.9s.6.6,1.1.5Z"/>
          <path class="st162" d="M587,16.7c-.4,2.1-2.6,3.6-4.1,5.2.5,1.6,0,2.2-1.3.9-4.8,6.1-13.2,14.4-18.7,19.7l11.6-13.3c1-.2.9,0,1.1-.3.4-.5.6-1.1-.4-1.7,4.8-1.6,7.4-8.3,11.7-10.6Z"/>
          <path class="st195" d="M572.9,40.8l-.7-3c.9.2,1.3.9,1.8.8s.8-.3,1.3-.7l11-11.6c.1-.9.8-1.5,1.7-1.8,2.1-1.7,3.4-5.3,6.2-6.2-2.3,4.6-17,19.2-21.3,22.5Z"/>
          <path class="st208" d="M533,74c-.9,1.8-8.3,10.2-9.2,9.4,3.1-3.8,5.9-6.9,9.2-9.4Z"/>
          <path class="st28" d="M558.9,42.5c-2.2-.4-4.2.2-5.3,1.9,1.5-3.9,5.5-7.2,7.6-8.9l-1.1,3.9c-1.7-1.7-1.8.2-2.5.8-1.5,1.2.8,1.2,1.3,2.4Z"/>
          <path class="st24" d="M516.7,244.9c-2.4,1.7-4.4,3.7-6.4,5.7,0-.5-.2-1.4.4-1.5s1.1.4,1.4-.6c2-1.1,2.8-4.3,4.6-3.6Z"/>
          <path class="st208" d="M533,74c.9-1.9,2.9-3.7,4.3-5.2.3,0,1.3.3,1.6.4-.8-.1-4.2,4.8-5.9,4.8Z"/>
          <path class="st34" d="M597.1,15.3c0-.1,0-.4-.2-1.1,2.1-1.9,3.6-4,5.7-5.3,0,.1,0,.4,0,.8-1.4,2.5-4.1,3.6-5.5,5.5Z"/>
          <path class="st93" d="M554.7,34.4c.6-1.9,1.7-2.2,2.2-2.8,1-1.1-.9-1.7-.4-3.1,1.7.3,1.9,2.8,1.2,3.7s-1.8,2.5-3,2.3Z"/>
          <path class="st188" d="M587,16.7c.3-1.7,3.3-5.5,3.9-5.5-.3.9-.3,2.3-.6,3-1.5.9-2.3,2-3.4,2.5Z"/>
          <path class="st178" d="M546.2,30.8c-.5.1-1.2-1.1-1.8-.8s-1.2,1.8-2.4,1.7c-.6-1.4,1.8-2.6,3.4-2.5.9-1.2,1.1-.2.8,1.7Z"/>
          <path class="st57" d="M553.5,6.1c.6-.4,1.1-.2,1.7.4s.5.5-.3,1.2-.5.3-1.2,0c-1.1-.4-1.5-.8-.2-1.7Z"/>
          <path class="st146" d="M546.5,12.5c.5-1.2,1.3-.3,1.7,0,.7.6.4.9-.4,1.3s-2,.2-1.3-1.4Z"/>
          <path class="st26" d="M562,34.8c.4-1.4,1.8-2.6,3.1-3.2-.4,1.6-1.1,3.2-3.1,3.2Z"/>
          <path class="st87" d="M562.1,18.6c0,1.3-.8,1.5-1.3,1.2s-.5-1.2-.4-1.9,1.7-.9,1.7.7Z"/>
          <path class="st179" d="M566,12.9c.4-.2.8.6,1,.7.8.5-.1.8-.4,1.2-.5.7-.9,0-1.3-.2-.5-.5-.3-1.1.6-1.7Z"/>
          <path class="st66" d="M531,17.5c1.4-1.4-1.4,6.1-1.3,1.9s.3-1.2,1.3-1.9Z"/>
          <path class="st95" d="M579.3,5.4c.3-.8.8.3,1.1.4.5.2.6,1.4,0,1.5s-1.5-.8-1.1-1.8Z"/>
          <path class="st14" d="M547.2,17.9c.3-.7.8.3,1,.4.7.5,0,.8-.4,1.2-.7.7-1.1-.1-.6-1.6Z"/>
          <path class="st165" d="M551.3,35.6c.3-.2.7.6.9.7.6.3.3.8,0,.8-.5,0-1,.1-1.5,0-.7-.2-.2-.8.7-1.4Z"/>
          <path class="st103" d="M545,42c0-.5,1-.2,1.6-.3s.6.5,0,.8-.5.7-.8.8-.8-.5-.9-1.3Z"/>
          <path class="st214" d="M541.4,55.4c.6-.6,1.6-.4,1.6,0s-.8.9-1.1,1.2c-.6.5-1.6-.2-.5-1.2Z"/>
          <path class="st97" d="M555.7,17.2c.1,2-.8,2.3-1,.4,0-.9.5-1.3,1-.4Z"/>
          <path class="st104" d="M543.4,7.3c.8.4.5.9-.4,1-1.8-.1-1.6-1.1.4-1Z"/>
          <path class="st0" d="M568.2,7.1c.1,2-.8,2.3-1,.4,0-.9.5-1.3,1-.4Z"/>
          <circle class="st198" cx="558.9" cy="6.6" r=".8"/>
          <circle class="st53" cx="533.7" cy="47.9" r=".8"/>
        </g>
      </g>
      <g>
        <path class="st177" d="M500.1-.5c-.1,2.4-.3,4.7-.4,7.3l-.7,10.4-.8,11.5c-.2,2.8-.5,5.9-1,9.1l-4.2,25c-.6,3.7-1.2,7.1-1.8,10.6l-3,18.9c-1.8,11.5-3.7,22.8-5.1,34.6l-4.7,43c-.5,4.9-1.3,7.5-4.6,11.1l-29.4,31.6c-1.3,1.4-1.1,2.1-1.3,3.3-1.6,7.2-.2,14.7-1,22.4-1.3,12,0,24-.5,36.7l-7.9,8.4c-5.1,5.5-10.8,10.4-15.5,15.7-.3,0-.6-.2-.6-.5s.6-.8.4-1.2c-1.1-2.6-3.3-4.7-2.8-7.3.3.1.6.5.7-.1-.2.4.5.8.9,1s.7-.6.6-.9,0-.8,0-1.2c0-.6-1.3-1.3-.7-2.2,1.1-1.6,3.2-2.3,3.8-4s.5-.8.8-1.2.1-1.3-.5-1.1c3.7-3.7,7.4-7.4,10.8-11.8s.5-5.9-.2-7.6c-.1-.9,1.4-1.8,1.4-2.9l.5-12.5c.4-8.7.7-17.4,2.4-26.1s1.6-5.8,4-8.3l23.8-24.7c2.4-2.5,4.6-5.3,6.9-7.1,8.2-6.4,2.3-10.2,3.1-15.1s2.3,6.9,3.5-17c.8-16.6,2.5-32.1,5.4-48.5l9.1-51.6c1.7-9.8,2.6-19,3.3-28.9l1.4-18.8h3.9Z"/>
        <g>
          <path class="st39" d="M487.8,100.6l-3.9,25.8c-.4,2.4-.4,5.1-.6,7.3l-.6,7.1c-.3,3.4.6,5.4.7,7.9.2,4.1-1.7,26-3.8,28.3l-35.9,38.9c-.3-.5-.5-.3-.8,0,.3-1.2,0-2,1.3-3.3l29.4-31.6c3.3-3.6,4.1-6.2,4.6-11.1l4.7-43c1.3-11.8,3.2-23.1,5.1-34.6l3-18.9c.6-3.5,1.2-6.9,1.8-10.6l4.2-25c.5-3.1.8-6.2,1-9.1l.8-11.5.7-10.4c.2-2.6.3-5,.4-7.3h.8c-.3,3.5-.1,7.1-.4,10.7l-.8,10.6c-.3,3.5-.1,7-.6,10.5l-1.7,12.2-9.6,57Z"/>
          <path class="st49" d="M420.3,282.7c-.7.4-1-.7-.7-1.2s.7-.8,1-1.1c.6-.2.8.8.5,1.1s-.7.6-.8,1.2Z"/>
          <path class="st36" d="M415.8,290.1c.4-.4.8-1.2,1.4-1.1,0,.4-.1.7,0,1.2s0,1.2-.6.9-1-.5-.9-1Z"/>
          <path class="st143" d="M425.1,284.5c-.6.4-1.4.5-1.8.5s-.6-.4-.3-1c-.1.3,1.3-1.8,2.3-1.2s.9,1-.2,1.6Z"/>
          <path class="st158" d="M474.7,168.4c-.8-1.3-.6-2.5,0-3.9.7,1.1.7,2.4,0,3.9Z"/>
        </g>
      </g>
      <path class="st86" d="M470.4,179.4c-1.6-5.1-1.2-9.9-.6-14.9,1.6-13.4,2.9-26.5,5.3-39.9.6-3.5.7-6.8,3.1-9.7-.4,5.5-.7,10.1-1.6,15.2-3.1,18.5-4.4,31.1-6.1,49.2Z"/>
      <path class="st185" d="M352.4,396.8c1,.5.6,1.6.4,2.4-.3,1.3-1.3,1.2-2,1.6-.6,0-1.2,0-1.8,0-.5-1.2-.8-2.2-.2-3,.9-1.2,2.7-1.8,3.7-1Z"/>
      <g>
        <path class="st7" d="M418,299.2l-8.3,9.6c-7.4,8.5-16,15.4-23.1,23.9,13.7-11.6,25.7-27.2,38.6-38.3,1.2,3.8,7.5,8.9,10.8,11.6-.8,3.1-4.1,4.6-5.9,7.4s-3.7,3.5-5.5,5.5l-8.8,10c-4.2,4.7-8.2,9.1-12.6,13.2l-3.3,3.1c-.6.5-11.4,12.8-13.3,14.7l-19.4,20.5c-3.2,3.4-6.5,6.3-8.7,10.1-2.2.1-4.4,2.7-4.8,4.7-.5.3-1,.8-1.3,1.5-1-.8-2.8-.2-3.7,1s-.3,1.8.2,3c-5.8,4.9-10.1,11.6-16.3,17s-8.3,9.5-14.2,14.9c.2.6.3.8.2.9-.5,0-.6.3-.8.8.5-2.5-10.5,11.2-11,11.7l-23.4,23.5c-.4-.6-1.4-.6-2.4-.5l-40.2,4.1c2.5-3.8,5.4-5.6,7.7-8.5s6.8-7.4,10.8-11,4-4.9,6.7-7.1,3.5-4.3,5-6.2c4.9-4,9.4-8.9,13.9-13.9s3.8-3.4,5.6-5.4l10.9-12.6c.7-.7,2.5-1.4,3.2-2.5,1.2-1.8,2.7-3.1,4.4-4.8l13.5-14.4c1.5-1.6,3.9-2.8,4.7-4.9s4.3-3.5,5.1-5.2c1.3-2.9,4-3.7,5.6-5.9,2.3-3.4,5.3-5.5,7.9-8.2l9.7-10.3,18.4-19.8c.7-.7,1-1.5,1-2.2.4-.2,1.3.3,1.6-.4s0-.8,0-1.2c1.6.3,2.7-.7,3.8-2.3,2.5-3.6,6.6-5.8,8.2-9.2s2.2-4.3,4.5-5.6,3.7-4.2,5.7-6.1l5.5-5.3c2.2-2.1,3.4-4.6,6.2-6.1s2.3-4.4,4.7-4.1c-.5,2.6,1.7,4.7,2.8,7.3s-.4,1-.4,1.2.3.5.6.5Z"/>
        <g>
          <path class="st100" d="M301.4,408.6c2.2-2.5,4.4-5.1,6.8-7.7l14-14.9,13.3-14c1.2-1.2,2.6-2.4,3.4-4,1.3-2.5,3.7-3.6,5.5-5.4l19.3-20.3c4.8-5,7-8.3,11.2-11.8,0,.7-.3,1.4-1,2.2l-18.4,19.8-9.7,10.3c-2.5,2.7-5.5,4.9-7.9,8.2s-4.2,3-5.6,5.9-4.1,2.6-5.1,5.2-3.2,3.3-4.7,4.9l-13.5,14.4c-1.6,1.7-3.2,3.1-4.4,4.8s-2.5,1.8-3.2,2.5Z"/>
          <path class="st100" d="M301.4,408.6l-10.9,12.6c-1.8,2-3.8,3.4-5.6,5.4-4.4,5-8.9,9.9-13.9,13.9,3.8-4.7,8.7-8.7,12.3-14s3.8-3.4,5.6-5.3l7.8-8.7c1.4-1.5,3.4-2.5,4.7-3.9Z"/>
          <path class="st74" d="M375,330.4c0-.6.9-1.7,1.6-1.6,0,.3.1.8,0,1.2-.2.7-1.1.2-1.6.4Z"/>
          <path class="st150" d="M443.7,215.9c.3,2.5,0,5-.4,7.7-.9,6.8,0,13.9-.4,20.8-.3,6.6.6,13.4-.4,20s-.6,6.2-.3,9.8c.8-.4,1.1-1.4,2.3-.5-3.7,2.9-18.3,19.8-19.5,20.8-12.8,11-24.8,26.6-38.6,38.3,7.1-8.5,15.7-15.4,23.1-23.9l8.3-9.6c4.6-5.4,10.4-10.3,15.5-15.7l7.9-8.4c.6-12.7-.7-24.7.5-36.7s-.5-15.2,1-22.4c.3-.4.5-.5.8,0Z"/>
          <path class="st204" d="M439.1,304.5c-2.3,4.2-6.5,6.9-9.2,11s-4.4,3.1-5.6,5.4-4.8,3.7-5.9,6.4-1.6,1.7-2.8,2.8c-3.6,3.3-6.2,7-9.3,10.3l-11,11.7c-2.8,3-5.5,5.9-8.6,8.8-5.2,4.9-9.5,10.1-14.2,15.6s-3.1,2.8-4.7,4.6l-6.1,6.9c-1.3,1.4-1.8,2.4-3.2,2.4,2.1-3.8,5.4-6.7,8.7-10.1l19.4-20.5c1.8-1.9,12.7-14.2,13.3-14.7l3.3-3.1c4.4-4.1,8.5-8.5,12.6-13.2l8.8-10c1.8-2,3.9-3.1,5.5-5.5s5.1-4.3,5.9-7.4,2.5-1,3.1-1.5Z"/>
          <path class="st65" d="M350.9,400.8c-7.8,4.9-24.9,27.4-32.2,32.8,0-.1,0-.4-.2-.9,5.9-5.4,8.7-10.1,14.2-14.9s10.5-12.1,16.3-17c.6,0,1.2,0,1.8,0Z"/>
          <path class="st107" d="M369.9,350.3c3.8-5.5,9.1-9.8,13.8-15.2.2-.8,0-1.5.4-1.8,1-.8,1.8-.6,2,0,.3,1.2-.4,1.7-1.1,2.5l-15.1,14.6Z"/>
          <path class="st65" d="M317.9,434.4c-1.6,3.5-8.1,8.9-11,11.7.4-.5,11.4-14.3,11-11.7Z"/>
          <path class="st204" d="M358.5,390.6c-1,1.9-3,3.6-4.8,4.7.4-2,2.6-4.6,4.8-4.7Z"/>
          <path class="st78" d="M367,352.6c.6-.6,1.6-.4,1.6,0s-.7.9-1.1,1.2c-.7.5-1.6-.2-.5-1.2Z"/>
        </g>
      </g>
      <path class="st117" d="M399.6,405.3c-10.5,12.1-21.3,24-32.5,35.3.2-.2-.3-1.3,0-1.5,3.2-1.5,3.9-5,6.1-6.8,9.6-7.9,17-18.5,26.3-27.1Z"/>
      <path class="st117" d="M332.7,477.5v-.8c1.9-2.9,4.5-5.1,7.1-7.8l13.2-14.1c4.7-5,9.5-9.5,14.1-14.1,0,0,0,.4.1.9-4.3,4.9-8.9,9.2-13.4,14l-13.3,14c-2.7,2.8-5.2,5.6-7.8,7.9Z"/>
      <path class="st2" d="M474.1,340.6c-5.5-1.2-5.6,4.6-9.8,7.1s-5.8,4.7-7.2,7.7-2.4,4.3-4,5.6c-7,5.7-15.3,17.1-23.4,23.4,0-.1,0-.4-.1-.9l14.2-14.7c4-4.2,8-8.2,11.6-12.1-3-5.2-1.1-.3-3.7-5.9,4.2-4.4,7.8-9.6,12.8-13.7s2.1-1.3,2.6-2.8,8.3-9,8-6.5-2.2,3.2.7,3.8l-1.7,9.2Z"/>
      <path class="st207" d="M464.9,332.6c.7.6.2,1.3,0,2.5.8,0,.9-.8,1.1-1s.7.1,1,.1c-.5,1.5-1.3,1.7-2.6,2.8-5,4.1-8.6,9.3-12.8,13.7l-50,52.4,60.6-65.6c0-2.3.7-4.8,2.5-4.9Z"/>
      <path class="st201" d="M399.8,404.6c.2-1,1.5-1.1,1.9-1.5.4.4.1.8-.2,1.2s-1.1.4-1.7.3Z"/>
      <g>
        <path class="st147" d="M596.4,134.1c.2,1.7.9,3-1.1,4.6s-1-.2-1.4.4-.3,1-.6,2.1c-3.1-1.1-12-11.6-12.3-11.8-1.4-.8-5.2,8.3-4.6,7.3,3.6,4.4,8,7.7,11.9,10.7-.9,1.2-.2,1.9.6,1.4s0-2.3,1.6-1.3l-32.4,80.3c-1.7-.5-.2-2.5.3-3.8,2.8-6.3-15.9,2.6-20.3.5l-8.4-29.4,87.8-163.4c5.7,4.4,5.7,11.8,10.4,10.5s.9-3,.2-3.9l-6.2-8.6c-.5-.7-1.5-.9-1.7-1.6s.4-1.3.7-1.8c3.4,3.8,6.9,7.3,9.4,12.5,1-.6,1.2-1.2,1.7-.1l-12.6,21.4-36.9,65.3c1.3,3.7,8.4,10.1,11.8,11.7,1.3-1.1,1.3-2.5,2.4-2.9Z"/>
        <path class="st20" d="M545.1,196.7c-1-1.6.2-3.7,1.9-4.9-.2,1.7-.3,3-1.9,4.9Z"/>
        <path class="st215" d="M543.6,200.4c-.7,1.1-.6,2.2-1.3,1.3,0-1.2,0-1.7.4-1.9s1.5,0,.9.6Z"/>
      </g>
      <g>
        <path class="st12" d="M800.5,132.8l-94.6,100.4-30.6,32.9c-1.9,2-1,5.6-2.5,7.7l-50.5,52.7-117.5,122c-3.4-3.9-7.2-1.9-6.1-3.9l109.6-117.2,55.1-58.2c-4.3-7,2.2-20.2,5.8-28s.4-5.3.9-7.8,4.6-4.2,6.4-6.1c4.4-4.7,10.5-10.4,15-15.3l28.1-29.9,63.1-65.9c6.1-6.4,11.4-12.8,17.9-17.9v34.5Z"/>
        <path class="st55" d="M800.5,189.5l-45.4,47-92.9,94.8-85.2,87c-3.5,2-8.6,2.4-11.7,5.8-1-1.5-.9-3.5,1.1-4.8,3.7-2.5,5.8-5.5,8.8-8.4l3.2-3.2,17.4-17.9c8.9-9.2,17.6-18.6,27.1-27.3,2.3-2.1,4.4-4,6.4-6.4,9.4-11.3,21.5-20.2,29.8-31.3,2.8-3.8,6.4-7.1,10-10.2,2.3-1.6,5-2.7,5.5-5.5,3.3-1.2,4.3-5.4,7.7-7s2.7-2.7,4-4.1l17-17.7,16.7-17.2c-.1-.5-.2-.8-.1-.9-.3-.5.3-.8.8-.8-1.6,3.3,8-5.9,6.3-6.3,1,.3,1.8-.4,2.6-1.3l14.6-15.9c3.1-2.3,6.7-4.7,8.8-8.3s13.5-14.1,16.2-16.7,3.4-2.1,3.8-3.9,6.6-5.4,5.6-7.1c0-.5.2-1,.8-.8,1.2.2,3-1.2,3.8-2.5,3.6-5.7,13.9-13,17.4-18.2v8.9Z"/>
        <path class="st192" d="M800.5,194.3c-2.1-5.1-2.3,13.2-2.4,11.1,0,.9-1.8.4-1.9.9l-.6,9.4c-.3,4.1-3.8,8.2-6.9,11.6l-39.2,41.6c-1.6-2.2-.5-5.3.5-8.1l4.5-12.5c1.4-4,2.7-8.2.7-11.8l45.4-47v4.8Z"/>
        <path class="st69" d="M727.7,380.6c-1.4,1.7-2.9,3.5-4.6,5.4l-11.6,12.5c-2.3,2.5-4.4,5-7,7.2s-8.7,10-15.8,16.3c-2.5,2.2-4,4.8-6.2,7.3-4.8,5.1-9.8,9.6-14.2,14.9s-1.6,1.9-2.7,3.1l-20.6,20c-1.8,1.8-2.7,3.8-4.3,5.3l-4.9,4.3c.2-.1-17,19.6-19.2,21.7-5.1,5.1-10.7,10-15.5,15.6.1-.1,0-.4-.3-.8l-4.6,4.5c-2.1,2.1-5.6,3.5-6,6.4-2.5,1.8-4.7,4.2-7,6.2-2-2.3-15.1-1.7-11.6-5.3l21.5-22.3,132.7-134.9c1,1.6-.9,2.3-2,3.9l4,8.7Z"/>
        <path class="st9" d="M504.7,448.6l-45.8,48.7-54.9,57.3c-1.8,1.8-4.6,3.1-5.6,5.7-.8,0-1.4.9-1.6,1.6-.6,0-1.1.1-.9.6l-21.1,20.9c.4,1.2,1.9,1.3,1.7,1.9-.4,1.1-1,2.5-2.4,1.8s-.9.5-1.2.6c-.6.2.5,1.2,0,1.6l-5.2,5.4c-.4-.1-.5,0-.8.2-12.9,1.4-21.9,2.6-36.6,4.7,1.2-3.7,1.6-7.9,4.1-11,8.5-10.3,17.1-19.8,26.6-29.8l63.7-66.8c7.7-8,14.4-16.2,23.1-23.3,4.8-3.9,12-4.7,17.6-7.1,7.5-3.2,28.7-12.4,33.1-17.1-1.1,2.1,2.7,0,6.1,3.9Z"/>
        <path class="st154" d="M304.6,562.1c-.3,0-.5.1-.8.1l-14.8,15.2c-1,1.1-1.6,2.8-2.8,3.1-1.1-1.1-1.4-.2-1,1.1-4.7,5-9.4,9.6-13.4,14.7-2.5,1.9-14.3,14.4-16.4,17.2-1,.2-1.9.8-2.8,2-4.2,5.4-8.9,10.1-13.7,14.6s-1.6.5-2,1.4-.6,1,.3,1.4c-6.1,5.3-2,.9-8.8,9.1s-6.1,4-7.5,7.5c-1.1.5-2.6,1.7-2.5,3.1-2.1.3-3.3,2.9-4,4.6-.9-.3-1.3.8-2.1.9.1-1-.8-.7-1.2-.8,1.2.5-13.6,3.1-13.7,3.1l-10.8,2.7c2.4-4.3,6-6.2,8.6-9.6-.2-.5-.2-.8-.1-.9l10.9-10.1c1.2-1.1,2.2-1.8,1.6-3.3l58.5-64.8,25.8-27.7c1.7-1.9,3.2-5.2,5.6-5.8,5.2-1.3-.3-3,10.2-5.7s17.7-6.4,26.7-9.2c.4.5,1.4,1.3.6,2.2l-20.1,21.9-9.6,10.2c-.4.5-.9,1.5-.7,1.8Z"/>
        <path class="st56" d="M292.8,538.5c.3,3,6.1-1.9,6.2.5-.4,1.1-2.1,1.1-1.5,2-2.5.6-3.9,3.9-5.6,5.8l-25.8,27.7-58.5,64.8-12.8,12.4c.3.6.3.9.2,1l-11.2,10.7c-1.3,1.3-4.9,1.7-6.5,1.8-4.1.4-5,2.2-7.1,4.3-3.9,1.4.5-2.4-4.2-1.4l112.4-119.5c3.6-3.8,9.5-5.8,12.5-11.1,1.3.3,1.1,1.5,1.8,1.1Z"/>
        <path class="st167" d="M418.1,561.1c.2,0,.5.1.7,0,.4,1.7,2.2.4,4.1.8,2.1,7.1-16.4,27.6-20.8,30.9s-8.8,9.9-11,11.6-4.2,4.5-6.5,6.9l-10.8,11.3c-.8.8-1.9,2-2.9,1.6s-1.1-1-2-1.2l6.9-35.4c-2.2,1.4-5.9,7.9-8.1,7.1l5.2-5.4c.4-.4-.7-1.4,0-1.6s.5-1,1.2-.6c1.4.7,2-.7,2.4-1.8s-1.2-.6-1.7-1.9l21.1-20.9c-2.2,1.5,14.8-1.4,13-1,3.2-.8,6.1-.3,9.1-.5Z"/>
        <path class="st212" d="M369.5,633.9c1.1,6.9-14.7,22.8-20.1,26.9l-28.2,21.8c-2,0-3.3,1.3-4.7.6l48.3-50c1.4.1,3.3,1.1,4.7.7Z"/>
        <g>
          <path class="st192" d="M727.7,380.6l-4-8.7c1.1-1.6,3-2.3,2-3.9l-132.7,134.9-21.5,22.3c-3.5,3.7,9.6,3,11.6,5.3-2.3,1.9-3.7,4.8-6.1,7.3l-10.9,10.9c-5.5,5.5-13.1,13-18.1,18.6l-5.5,6.3c-2,1-4.5,3.9-6,5.5l-15,15.6c-1.9,1.9-3.6,3.6-4.9,5.6-.9.2-2.3.5-3.1,1.4s.4,2.1,1.1,2c2.3-.2,1.4-2.4,2-3.5,3-.8,4.8-4.2,7-6.5l10.2-10.6c3.3-3.4,6.1-6.5,8.7-9.6,3.3-1,4.8-4.1,7.3-6.7l21.5-22.4c2.2-2.3,4.8-3.4,6.6-6.2,3.2-4.9,11.9-10.7,12.4-13.9,1.9-1.3,3.3-3.3,5.5-4.7s3.9-3.6,5.5-5.5c4.7-5.6,10.4-10.5,15.5-15.6l-1.4,5.6c1.2-4.6-1.3,14.8-1.1,11.5-.2,4.9-.7,10,0,15.8s3.4,16.7,5.9,21.7c-.3.1-.7,0-1.2,0s-.5.4-.4.8c-.7-.1-.9.4-.8,1s.2,1,.5,1.3c-.5-1.2-1.5,2.1-3.6,2.4s-2,1.5-2.3,2.3,0,.5,0,.8c-1.5.3-2.4,1.9-3.1,3.2-2-.4-2.5,1.6-3.2,3-.9-.4-.9.6-1.1,1.5-1.2-.1-1.8.8-2,1.7-.8.2-2.5,1.3-2.5,2.3,0,2-1.7,2.6-3.1,3.9-.6,0-1.3-.2-1.6.4s0,.9,0,1.2c-2.5.1-1.3.3-3.1,3.1-.6,0-.9.6-1.5.8-1,.4-1.8,2-2.3,3.1-1.7,0-2.2,2.5-3.3,3.1s-2.3,1.3-2.3,3.1c-.6,0-1.3-.2-1.6.4s0,.8,0,1.2c-1.7-.2-1.9,1.3-2.3,2.3,0,0-.4,0-1-.2-2,2.3-4.1,4.2-6.1,6.5l-10.9,12.5c-1.9,1.9-4.6,3-6.2,5.5-2.8,4.4-7.5,6.9-10.5,11-2.3-1.1-9.9-2.4-11.2-1l-12,13.5c-1.7,1.6-4.2,3.2-5.5,5.2s-3.7,3.5-5.5,5.6c-6.9,7.9-10.9,10.7-14.9,15.1l-11.5,12.5-10.7,11.6c-1.5,1.4-11.7,9.9-11.2,11.8l-9.6,8.8-5.4,6c-2.7,3-5.9,5.5-8.5,8.6s-4.9,4.7-7.1,6.9l-3.6,3.7c-2.1,2.2-4.2,4-5.5,6.4-3.6,3.3-7.7,6.6-10.6,11.1,4.1-3.4,8.3-6.7,10.6-11.1l9.9-9.2c10.1-9.4,15.8-17.3,25.8-26.8s4.3-3.2,3.9-4.6c4-3.7,7.6-8,11.2-11.8l6.8-6.1c1.9-1.7,3.7-3.6,5.5-5.5l11.6-12.4,9.9-10.1c4.9-5,10.3-11.1,14.4-15.7l14-13.4,9.7,1.7c.4.4,0,.8-.2,1.2s-.8.6-1.4.4c-2.7-.7-4.2,1.2-5.8,2-11.5,5.4-11.4,16.7-12.7,22.3l-1,4.6c-1.3,5.6-.5,11.2.2,16.6l1.2,9.2c.7,5.1.8,11.5,3.7,17.3,10.1,20-4.3,29.4-11.4,41.6-1.1,1.9-3.3,2.9-4.2,4.8s-2.7,3.1-4.5,4.5c-6.2,5-11.6,11.8-17.2,17.7l-6.8,7.2c-.6.6-7.4,6.8-7.7,7.5-4.4,7.8-4.8,1.5-8.6,11.3h-188.8v-1.6c2-.3,4.6-2.5,4.7-4.7,6-4.3,16.1-18,21.9-21.9s2.5-2.7,3.8-4l11.1-11.6c2.3-2.4,4.5-4.9,7-7.2s5.2-4.1,7.3-7,16.2-17.4,17.7-18.8c2.6-2.4,5.3-4.1,7.3-7,4.5-6.4,11.6-10.3,15.7-17.2-6.2,4.3-21.7,22.9-25.2,25s-3.1,3.1-4.8,4.8l-12.5,13.1c-2.4,2.6-4.7,5.9-7.5,7.5s-4.2,4.9-6.6,7.3c-3.9,3.7-7.3,7.1-10.8,11.1-7.3,8.2-15,15.3-22.6,22.8s-1.7,1.6-1.8,3c-1.8,1.3-3.6,2.8-4.7,4.7-.4,0-.9-.1-1.2,0-.6.3-.4,1-.4,1.6h-44.6c-.8-1.7,5.9-6.1,7-8.6,8.3-5.6,7.7-8.7,11-10.2s2.3-3.9,2.6-5.9l1.7-13.1c.3-2.6.6-4.8,2.1-7.6-2.9,1.1-2.5,3.8-2.8,6l-1.8,12.5c-.4,2.5.5,6.1-2.6,7.4s-4,5.5-6.9,7.1-2.5,2.2-3.3,3.9c-.9.6-2.3.6-3.4,2.1-1.7,2.3-4.5,3.8-5.2,6.5H82.4c0-1,1.2-1.2,1.6-2.2-1.8-.5-2.7,1-2.4,2.2h-37.2c8.7-10.2,18.2-19.5,27.9-29.7l48.1-50.1,49.9-51.2c2.1-2.1,3-3.9,7.1-4.3s5.2-.5,6.5-1.8l11.2-10.7c0,.1,0,.4.1.9-2.6,3.4-6.2,5.3-8.6,9.6l10.8-2.7c0,0,14.8-2.7,13.7-3.1.4.2,1.3-.1,1.2.8-4.4,1.5-5.5-.4-6.4,4.1l10.5-2.1c1.3-.2,2-.6,2.9-1.3,3.5-2.9,6.6-6.2,10-9.6l55.3-56.8c.4,1.2,5.3,7.4,7.1,4.1.7-1.4,1.6-.8,1.1.9,8.5,7,9.9,14,18,22.1-.5.3-.9,1.3-1.5,2l-14.7,15.6c-2.8,3-5.9,5.4-7.9,8.6-1.4.9-3,2-4.1,4.4,2.7-.2,3.2-3,4.1-4.4.6,1.5,8.7-7.6,9.4-8.6,3.8-4.8,8.5-8.5,12.6-13.2,5.8-6.7,12.1-13,18.3-19.3s5.3-4.2,9.5-4.7l22.2-2.8c2.4-.3,5-1.5,7.1-.3-.4,2.2.8,2.4.9.4.8-1,.8-1.6.5-2.3.3,0,.4-.3.8-.2,2.2.8,5.9-5.7,8.1-7.1l-6.9,35.4c-.5,2.8-1.5,7.4-3.3,9.3-.7-.4-1.3.2-1,.9l-48.3,50-51.5,52.8c-1.8,3.2-2.1,6.8-3.6,10.7,17.4,2.8,20.2,1.6,36.9-3.6,7.4-2.3,16.2-8.5,24.1-9,.4,1,.2,2,1.1,1.9-.5,1.3-1.5,3.1-3.3,3.6s-2.7,3.6-4.3,5c-4.4,4-8.5,8.1-12.1,12.9-2.3-2-4.6-2.8-6.4-1.8-2.6,1.5-3.6,4.2-2.7,6.3s3.7,3.4,5.6,2.9c3.2-.9,3.4-3.7,3.7-6.4s3.1-3.4,4.4-4.8c6.8-7.3,12.9-14.5,20.4-21.3,6.2-5.6,13.8-15.1,21.9-22.7s2.7-1.8,3.7-3.6c1.6-2.8,5-5.7,8-7.5s7,.5,10.4-.9c-1.4-1-3.2-.2-4.7-.4-.2-3.4,1.9-6.4,4.6-8.7s2-3.5,3.9-4.7,21.1-19.2,22.1-19.5c2-.7,2.8-2.8,4.4-4.1l19.9-16.4c1.5-1.3,2.1-4.3,4.7-3.2l28.6-30.2c4-4.3,8-7.8,11.9-11.9l12.5-13.3c2.9-3.1,6.2-5.2,8.8-8.6,4-5.2,9.1-9.4,13.4-14.1,1,6,13.6-1.7,18.4-1.2s4.9-2.5,6.7,0c-.7,1.8,7.6-7.9,7.5-5.9-4.2,4.5-7.9,9.8-13.3,14.2s-3,3.2-4.6,4.9l-7.2,7.5c-2.3,2.4-4.7,4.8-7.1,7.3l-17.2,17.7c-2.3,2.4-4.4,5.2-7,7s-3,2.3-4.1,4.1-13.7,14.8-16.2,17.4-6,3.4-6.4,6.8l-16.4,16.6c-1,1-1.7,1.3-2.5,2.2l-8.5,9.3c-6.3,6.9-3.9,3.5-8.7,8.7l-10,10.8c-4.5,4.9-8,6.7-10.2,10.3s-5.8,4.6-7.2,8.6c6-4.2,9.1-10.7,14.2-14.1s3.2-3.1,4.8-4.8l9.2-10c1.1-1.2,1.8-2.4,3.3-3.3,2.1-1.3,3.7-3.6,5.5-5.4l8.7-9.4c4.1-4.4,8.3-8.6,12.4-13.2s5.1-3.5,5.5-6.3c7.7-7.8,15.8-16,24.3-24,.9-1.3,1.7-2.7,3.1-3.6,3-1.9,5.3-5.1,7.8-7.7l12.5-13.3c1.9-2,3.1-4.3,5.4-5.5s4-3.5,5.6-5.5c8-9.8,22.1-22.4,27.6-29.5s9-7,11.1-12-.6-12.4,1.7-13.8-.4-1-.6-1.7c-1.1-3.9-.4-7.8-.6-11.9,3.8,1,11.6-2.4,12.6-.3s-.9,1.1-1.5,1.8.2,2,.9,1.5c-1.3.9,9.3-10.4,9-10.1.9.1,1.7-.8,1.7-1.6,2.4-3.1,6.5-5.5,8.9-9s-.4-4.3,2.8-5.9,3.3-3.9,4.9-4.9c3.2-1.9,3.5-4.2,4-7.2,1.4-7.3,5.4-13.2,9.3-18.8l7.3-10.6c7.1-10.4,13.9-20.8,22.1-30.3,4.9-5.7,10.3-9.6,18.1-11.1s0-4,.5-5.2c.9-2.1,2.1-5.3.1-7.6,3.4-2.3,1.5-6.8,3-9.5,6-1.6,10.9-7.1,15-12.4l28.7-37.3,16.8-22.5,6.7-8.9,10.4-14.8c6.5-9.3,7.4-10.8,16.7-18.5-5.4,8.4-4.6,16.1-5.7,22.8l-1.1,6.7c-.7,4.1-.4,7.9-1,11.9l-4.3,26.6c-1.2,7.5-1.3,5.6-1.4,12.5v7.8c-.4,14.4.3,12.4-7.1,21.3Z"/>
          <g>
            <path class="st140" d="M600.2,573.7c0-1,1.6-2.1,2.5-2.3-.1,1-.6,1.7-1.2,3.2-.5-.3-.7-1-1.3-.8Z"/>
            <path class="st152" d="M612,561.9c0-.2,0-.6,0-.8,1,.3,1.5-.5,2.3-.8.3.8,0,1.6-1.1,1.6s-1.1,1.5-1.3,0Z"/>
            <path class="st137" d="M614.3,560.4c-.9.3-1.4,1.1-2.3.8.4-.8,1.3-2.2,2.3-2.3,0,.5-.2,1.1,0,1.6Z"/>
            <g>
              <path class="st81" d="M579.1,596.3c-1.1,2.5-3.5,4.2-5.5,6.3l-8.2,8.7c-1.5,1.6-3,2.5-4.3,3.8l10.9-12.5c2-2.3,4.1-4.2,6.1-6.5.6.3.9.3,1,.2Z"/>
              <path class="st113" d="M608.9,565.1c-.4.8-.1,1.9-1.2,2.7s-1.1.7-2,.3c.7-1.5,1.2-3.4,3.2-3Z"/>
              <path class="st149" d="M597.1,577.6c1.4.2.3.9,0,1.3s-1,.3-1.5.3c0-.3-.1-.8,0-1.2.2-.6,1-.4,1.6-.4Z"/>
              <path class="st23" d="M619.8,553.3c.2.5,1.1.5.8,1.6-.9-.3-1.4-1.1-2.3-.8-.1-.4.2-.8.4-.8.4,0,.9,0,1.2,0Z"/>
              <path class="st186" d="M590.9,583c.6-.2.9-.8,1.5-.8v1.2c0,.3-.6.5-1.1.4s-.6-.3-.4-.8Z"/>
              <g>
                <path class="st206" d="M120.4,720.7l-48.1,50.1c-9.7,10.1-19.2,19.5-27.9,29.7h-4.3l79.9-83.7c-.2,1.4.9,2.4.4,3.9Z"/>
                <path class="st105" d="M240.4,791.9c-1.2,2.5-7.9,7-7,8.6h-1.6c.7-2.7,3.5-4.1,5.2-6.5s2.5-1.5,3.4-2.1Z"/>
                <path class="st13" d="M82.4,800.5h-.8c-.2-1.2.6-2.7,2.4-2.2-.5,1.1-1.6,1.3-1.6,2.2Z"/>
                <path class="st85" d="M279.5,798.9v1.6h-1.6c0-.6-.2-1.3.4-1.6s.8,0,1.2,0Z"/>
                <path class="st81" d="M561.1,615.1l-11.7,13.3c-.7,0-1.5.8-1.6,1.6-1.3.1-1.6,1.9-2.9,2.3l-9.7-1.7-14,13.4,12-13.5c1.3-1.4,8.9,0,11.2,1,2.9-4,7.6-6.5,10.5-11s4.3-3.6,6.2-5.5Z"/>
                <path class="st80" d="M585.4,589.3c1.1-.7,1.6-3.1,3.3-3.1-.6,1.5-1.2,3.4-3.3,3.1Z"/>
                <path class="st51" d="M583,592.4c0,.6-.9,1.6-1.6,1.6,0-.3-.2-.8,0-1.2.3-.6,1-.4,1.6-.4Z"/>
                <path class="st31" d="M170.3,669.5l-49.9,51.2c.5-1.4-.6-2.4-.4-3.9l46.1-48.8c4.7-1,.2,2.8,4.2,1.4Z"/>
                <path class="st153" d="M550.2,514.2c.2,4.1-.4,7.9.6,11.9s1.5,1.1.6,1.7c-2.2,1.4-.5,11.1-1.7,13.8-2.1,4.9-7.8,7.8-11.1,12-5.5,7-19.5,19.6-27.6,29.5-1.7,2-3.3,4.3-5.6,5.5s-3.5,3.5-5.4,5.5l-12.5,13.3c-2.5,2.7-4.8,5.8-7.8,7.7s-2.2,2.3-3.1,3.6c-8.5,7.9-16.6,16.1-24.3,24,.4-3.4,4.3-4.6,6.4-6.8s15.5-16.4,16.2-17.4c1.1-1.7,2.4-2.9,4.1-4.1,2.6-1.8,4.6-4.6,7-7l17.2-17.7c2.4-2.4,4.7-4.8,7.1-7.3l7.2-7.5c1.7-1.7,2.6-3.3,4.6-4.9,5.3-4.3,9.1-9.6,13.3-14.2s9.6-8.7,14.1-14.3l-.4-31.2c0-7-1.3-15.4,0-22.3,4.2-7.1,11.5-12.3,16.4-18.6,1.9-2.5,3.8-5.3,6.7-6.3-2.7,4.9-6.4,7.3-9.9,10.9l-6.7,6.9c-6.8,6.9-7.1,8.2-5.8,17.5s0,10.8.3,16.1Z"/>
                <path class="st123" d="M212.1,760.6c-1.5,1.6-1.9,3.4-3.8,3.9.3-2.5,2.4-3,4.1-4.9l77.3-81.3,47.1-49.8c.7-.8.2-2.5.9-2.8s1.7-1.3,2.8-.3,0,1.9-.3,2.7-2,0-2.9,1l-88.8,93.7-7.8,8.1-28.5,29.7Z"/>
                <path class="st16" d="M367.9,697.2c1.5.2,3.3-.5,4.7.4-3.4,1.4-7.4-.9-10.4.9s-6.4,4.7-8,7.5-2.1,2.1-3.7,3.6c-8.1,7.6-15.7,17-21.9,22.7-7.5,6.9-13.6,14-20.4,21.3s-4.1,2.6-4.4,4.8-.6,5.5-3.7,6.4-4.5-.4-5.6-2.9,0-4.8,2.7-6.3,4.2-.2,6.4,1.8c3.7-4.8,7.7-8.9,12.1-12.9s1.8-4.2,4.3-5,2.8-2.3,3.3-3.6c3-1.5,5.1-5,7.5-7.4l8.5-8.6c1.8-1.9,2.8-3.6,5-5.3,6.3-5.3,11-11.5,16.7-17.1h6.8Z"/>
                <path class="st85" d="M284.2,794.2c0-1.4.6-1.8,1.8-3,7.6-7.6,15.3-14.6,22.6-22.8,3.5-4,7-7.4,10.8-11.1,2.4-2.3,3.5-5.5,6.6-7.3s5.1-5,7.5-7.5l12.5-13.1c1.6-1.7,2.8-3.6,4.8-4.8,3.5-2.2,19-20.8,25.2-25-4.1,7-11.2,10.8-15.7,17.2s-4.7,4.6-7.3,7-17.1,18-17.7,18.8c-2,2.9-4.7,4.6-7.3,7s-4.7,4.8-7,7.2l-11.1,11.6c-1.2,1.3-1.8,2.7-3.8,4-5.7,3.9-15.9,17.6-21.9,21.9Z"/>
                <path class="st153" d="M452.4,642.5c-.3,2.8-3.4,4-5.5,6.3-4.1,4.6-8.4,8.8-12.4,13.2l-8.7,9.4c-1.7,1.9-3.3,4.2-5.5,5.4s-2.1,2.1-3.3,3.3l-9.2,10c-1.6,1.7-2.9,3.5-4.8,4.8-5.1,3.4-8.2,10-14.2,14.1,1.4-4,5.1-5.3,7.2-8.6s5.7-5.4,10.2-10.3l10-10.8c4.8-5.2,2.4-1.8,8.7-8.7l8.5-9.3c.9-1,1.6-1.2,2.5-2.2l16.4-16.6Z"/>
                <path class="st81" d="M521.2,644c-4.1,4.6-9.5,10.7-14.4,15.7l-9.9,10.1-11.6,12.4c-1.8,1.9-3.6,3.8-5.5,5.5l-6.8,6.1,10.7-11.6,11.5-12.5c4.1-4.4,8.1-7.1,14.9-15.1,1.8-2.1,4-3.2,5.5-5.6s3.8-3.6,5.5-5.2Z"/>
                <path class="st141" d="M542.4,573.7l5.5-6.3c5-5.6,12.6-13.2,18.1-18.6l10.9-10.9c2.4-2.4,3.9-5.4,6.1-7.3s4.5-4.4,7-6.2c-.4,3.3-9.2,9-12.4,13.9s-4.3,3.9-6.6,6.2l-21.5,22.4c-2.5,2.6-4,5.7-7.3,6.7Z"/>
                <path class="st112" d="M171.6,670c-.5-3.6,11.4-5.1,14-6.2,0,1.6.7,1.6,1.2,1.4s0-1.3.6-1.5c1.6-.6,2.6-.8,3.7-.9,4.6-.3,18.2-6.5,13.1-.5l-32.7,7.6Z"/>
                <path class="st15" d="M422.2,746.4c1.3-2.4,3.5-4.3,5.5-6.4l3.6-3.7c2.1-2.2,5-4.4,7.1-6.9s5.9-5.7,8.5-8.6l5.4-6,9.6-8.8c.4,1.4-2.6,3.3-3.9,4.6-10,9.5-15.7,17.4-25.8,26.8l-9.9,9.2Z"/>
                <path class="st75" d="M213,732.4c1.3-4.2,6-6.2,8.4-9.2s7.7-7.8,9.5-7.9c15.6-.7,14-4.9,23.5-12.6-2.6,4.5-6.8,8.7-11.2,11.8-3.7,2.3-11.3-.9-13.9,2.2l-2.1,2.6c.9-1-13.7,12.7-14.2,13.1Z"/>
                <path class="st124" d="M466.6,721.4c1.8-3.4,5.1-5.6,7.8-8.5l13.1-14c5-5.4,3.4-4,9.4-8.7,0,1.9-1.7,2.9-3.2,3.9-2.1,1.4-3.7,3.6-5.5,5.5l-12.3,13.2c-1.4,1.4-2.5,2.4-4.1,3.9l-5.3,4.7Z"/>
                <path class="st89" d="M202.1,744.2c.2,1.4-2.8,3.7-4,4.7-8.3,7.1-15.3,16.3-24.1,22.8,8.1-8.6,19.1-20.6,28.1-27.5Z"/>
                <path class="st181" d="M240.4,791.9c.8-1.7,1.1-2.6,3.3-3.9s3.7-5.7,6.9-7.1,2.2-4.9,2.6-7.4l1.8-12.5c.3-2.2,0-4.9,2.8-6-1.5,2.8-1.8,5-2.1,7.6l-1.7,13.1c-.3,2.1-.3,4.9-2.6,5.9-3.4,1.5-2.7,4.6-11,10.2Z"/>
                <path class="st141" d="M542.4,573.7c-2.7,3-5.5,6.2-8.7,9.6l-10.2,10.6c-2.2,2.3-4,5.7-7,6.5,1.2-2,3-3.7,4.9-5.6l15-15.6c1.6-1.6,4.1-4.5,6-5.5Z"/>
                <path class="st17" d="M214.4,657.3c.3,3.9,2.8-.4,4.8,1.6-.8.7-1.6,1.1-2.9,1.3l-10.5,2.1c.9-4.4,2.1-2.5,6.4-4.1.8,0,1.2-1.2,2.1-.9Z"/>
                <path class="st25" d="M588.5,489.2c0,0,0-.4-.3-1l14.6-13.8c-3.8,6.1-9.6,9.7-14.3,14.9Z"/>
                <path class="st124" d="M457.1,731.7c2,.5-11.8,11.9-11.8,11.5,1.3-2.9,3.6-4.3,5.6-6l6.2-5.5Z"/>
                <path class="st19" d="M407.6,782.5c3-4.7,6.9-8.4,11.7-11.9-3.2,4.4-7.1,8.2-11.7,11.9Z"/>
                <path class="st77" d="M389.8,684.7c0,0,0-.4-.3-1.1,4.3-3.2,6.7-7.8,11.8-10.8-3,4.6-7.6,7.7-11.5,11.8Z"/>
                <path class="st89" d="M202.1,744.2c0,0,0-.4-.3-1,4-3.4,7-7.6,11.2-10.7,0,.1,0,.4.2,1-3.9,3.5-7,7.5-11.2,10.7Z"/>
                <path class="st15" d="M461.8,705.9c-.5-1.9,9.7-10.5,11.2-11.8-3.6,3.9-7.2,8.2-11.2,11.8Z"/>
                <path class="st141" d="M601,514.2c-1.6,1.9-3.1,4-5.5,5.5s-3.6,3.3-5.5,4.7c.4-3,3.9-4.4,6-6.4l4.6-4.5c.4.4.4.7.3.8Z"/>
                <path class="st54" d="M422.2,746.4c-2.3,4.3-6.5,7.6-10.6,11.1,2.9-4.4,7.1-7.7,10.6-11.1Z"/>
                <path class="st124" d="M457.1,731.7c0,0,0-.4-.3-1.1,3.6-2.7,6.4-6.1,9.8-9.2-2.1,3.9-5.9,7-9.5,10.2Z"/>
                <path class="st77" d="M416.4,657.4c-1.9,4.3-6.1,7.2-9.4,10,2.6-4.5,6.2-7.2,9.4-10Z"/>
                <path class="st197" d="M121.6,775c-6.3.7-8.5,1.9-14.2,1,4.6-1.7,9.4-1.5,14.2-1Z"/>
                <path class="st77" d="M382.8,692.6c1.5-3.4,4.3-5.7,7-7.8-1.4,3.2-4.3,6-7,7.8Z"/>
                <path class="st77" d="M426.6,647.2c1.3-2.5,4.1-4.4,6.2-6.1-1.2,3.3-3.8,4.7-6.2,6.1Z"/>
                <path class="st73" d="M382.8,692.6c-1.1,2.6-4.2,4.3-6.2,6.2.9-3.7,3.9-4.7,6.2-6.2Z"/>
                <path class="st170" d="M435.9,716.1c1-2.9,3.1-4.8,6.2-6.4-1.4,2.6-3.6,4.4-6.2,6.4Z"/>
                <path class="st62" d="M647.9,421.3c2.3-2.1.7,9.1-1.6,8.5.9-3.1,2.2-5.5,1.6-8.5Z"/>
                <path class="st83" d="M516.5,600.4c-.7,1.1.2,3.3-2,3.5s-2-1-1.1-2,2.2-1.2,3.1-1.4Z"/>
                <path class="st124" d="M438.3,751.3c.7-2.6,2.6-4.3,5.4-5.6-1.1,2.3-3.1,3.9-5.4,5.6Z"/>
                <path class="st25" d="M588.5,489.2c-1.3,2-2.2,3.9-5.4,4.7,1.2-1.9,3-4.4,5.4-4.7Z"/>
                <path class="st77" d="M421.9,651.9c-1.3,2.2-3.4,3.7-5.5,5.5.9-2.1,2.8-5.3,5.5-5.5Z"/>
                <path class="st54" d="M403.8,766.2c.6-2.8,2.8-4,4.8-5.6-.6,2.8-2.8,4-4.8,5.6Z"/>
                <path class="st85" d="M279.5,798.9c1.1-1.9,2.9-3.4,4.7-4.7-.1,2.2-2.7,4.4-4.7,4.7Z"/>
                <path class="st130" d="M633.2,444c-1.4,1.7-1.7,4.2-4.2,3.6,1.1-1.4,2.6-2.3,3-4.2,1.1-.8,2.5-.3,1.2.5Z"/>
                <path class="st190" d="M254.5,702.7c1-1.7,1.7-4.5,4.9-4.7l-4.9,4.7Z"/>
                <path class="st77" d="M421.9,651.9c1.2-2.1,3-3.5,4.7-4.7-1,2-2,4.5-4.7,4.7Z"/>
                <path class="st88" d="M92.8,789.6c.6-1.7,1.8-3.2,4.3-4-.6,1.7-1.8,3.2-4.3,4Z"/>
                <path class="st133" d="M286.6,645.6c-.9,1.5-1.4,4.2-4.1,4.4,1.1-2.5,2.7-3.5,4.1-4.4Z"/>
                <path class="st142" d="M554.9,522.8c1-1.7,2.2-2.8,3.9-3.9-.3,2-1.3,3.5-3.9,3.9Z"/>
                <path class="st180" d="M191.6,763.6c-.4-.7.9-3,1.6-2.8,1,.9.1,3.1-1.6,2.8Z"/>
                <path class="st77" d="M403.2,671.5c-.2-1.9,1.3-3.3,3.1-3.1-.9,1.4-1.8,2.2-3.1,3.1Z"/>
                <path class="st18" d="M497,690.2c0-.7,0-1.2.4-1.6s.8-1.2,2.1-.5c-.9.8-1.4,1.8-2.4,2.1Z"/>
                <path class="st173" d="M636.9,438.6c.6-.6,1.6-.3,1.6,0s-.7.9-1.1,1.2c-.7.5-1.6-.2-.5-1.2Z"/>
                <path class="st116" d="M642.4,435c-.5.5-.9-.6-.7-1s.6-.5,1.2-1.2c.7.5.6,1.2-.5,2.2Z"/>
              </g>
            </g>
          </g>
        </g>
        <path class="st184" d="M358.6,467c-1.7,1.7-3.3,4-5.9,5.9l-44.1,47.7c-5.6,6.1-10.7,12-15.8,18-.7.3-.5-.8-1.8-1.1-2.9,5.4-8.9,7.3-12.5,11.1-.9-1,.7-1.2,1.2-1.7l58.5-61.9c4.7-5,10.5-9,15.4-14l4.4-4.4c.3-.3,1,0,.6.4Z"/>
        <path class="st30" d="M597.1,313.3c-4.6,5.8-26.7,28.7-33.5,35.9l-13.4,14.1c-4.5,4.7-9.1,9.1-13.4,13.9.2.5.2.8.1.9-1.9,1.6-13.7,12.3-13.3,14.1-.8.7-1.6.4-2.3.8l-1.2.7c-.4.3-.6.8.4.8,0,.3,0,.5,0,.8-.5.4-10.8,9.4-9.4,10.2-3,.8-19,3.7-20.4.6s0-1.6-1.3-2.1l-15.9,17.1-34.4,36.8c-1.5-2-2.6-3.8-4.6-4.8l42.9-41.7,88.1-83.4c.5-4.3.7-8,1.5-11.7.6.2,1.3,0,1.1-.5-1.1-2.1,3.2-5.2,5.5-7.3,7.2-6.4,14.5-13.3,21.1-20.6.7,2.1-2.2,3-3.1,4.8s1.6,4,2.1,5.7c1.3,4,1.8,7.7,4.9,11.1,1.1-.8,1.2-2.9,1.8-.5l-3.3,4.3Z"/>
        <g>
          <path class="st32" d="M800.5,98.3c-6.5,5.2-11.8,11.6-17.9,17.9l-63.1,65.9-28.1,29.9c-4.6,4.9-10.7,10.6-15,15.3s-5.7,3.2-6.4,6.1.3,5.2-.9,7.8c-3.5,7.8-10.1,21-5.8,28l-55.1,58.2-109.6,117.2c-4.4,4.7-25.6,13.9-33.1,17.1-5.6,2.4-12.7,3.2-17.6,7.1-8.8,7.1-15.5,15.3-23.1,23.3l-63.7,66.8c-9.5,10-18,19.4-26.6,29.8s-2.9,7.3-4.1,11c14.7-2.1,23.7-3.4,36.6-4.7.3.7.2,1.3-.5,2.3,0,2-1.3,1.7-.9-.4-2.1-1.2-4.6,0-7.1.3l-22.2,2.8c-4.2.5-6.5,1.7-9.5,4.7-6.3,6.3-12.5,12.6-18.3,19.3s-8.8,8.3-12.6,13.2-8.9,10.1-9.4,8.6c2-3.2,5.1-5.6,7.9-8.6l14.7-15.6c.7-.7,1.1-1.6,1.5-2-8.1-8.1-9.5-15.1-18-22.1.6-1.7-.4-2.3-1.1-.9-1.8,3.3-6.7-2.9-7.1-4.1l-55.3,56.8c-3.3,3.4-6.5,6.7-10,9.6-2-1.9-4.6,2.3-4.8-1.6.7-1.8,1.9-4.4,4-4.6s2-1.8,2.5-3.1c1.3-3.6,5.4-5.1,7.5-7.5,6.9-8.1,2.7-3.8,8.8-9.1l6.1-5.3,5.1-6.1c2.6-3.1,4.9-5.3,7-8.1,5.3-4.6,11.8-11.4,16.4-17.2,2.2-1.6,4.2-3.3,6.3-5.5l12.5-13.2,9.2-10.4c1.6-1.8,4.1-2.7,4-5,.3,0,.5,0,.8-.1.1,1.1.6.3,1,.1-1.7,1,9.9-11.1,10.8-12l13.2-14.1c1.6-1.7,9.2-10.2,9.3-11.7,12.1-6.3,25.5-10.1,37.6-17.6s13.2-11.5,19.7-17.6l38.4-36c2,.9,3.1,2.8,4.6,4.8l34.4-36.8,15.9-17.1c1.2.5,1,1.5,1.3,2.1,1.4,3.1,17.4.2,20.4-.6,2.3-1.9,8.9-7.6,9.4-10.2,1.1-.7,3.7-.8,3.1-3.1,4.7-3.7,8.5-8.4,13.2-12.7s0-1.1.1-1.4c4.9-4.2,9.4-9.2,14-14.1l14.1-14.8,7.3-8,20.8-21.7c1.8-1.9,3.1-3.7,5.1-5.5-.2-.7-.7-1.1-1.1-.8l3.3-4.3c-.6-2.4-.8-.3-1.8.5-3.1-3.4-3.6-7.1-4.9-11.1s-3-4-2.1-5.7,3.8-2.6,3.1-4.8l22.1-24.3,68.7-73.1c2.1-2.2,3.5-2.4,4.7-5.1s6.5-6.9,9.5-10.1c-.2.4-.4,1.3,0,1.4,3.2,1.2,4.7-.5,7.1-3l93.8-98.6v23Z"/>
          <g>
            <path class="st108" d="M800.5,75.3l-93.8,98.6c-2.4,2.5-3.9,4.2-7.1,3s-.1-1,0-1.4l10-10.3c.4-.4,1-.8,1.3-.7s.3.9,1.1.9c-.1-1.5.1-3,1.8-3.2s1.4,0,2.2-.8l84.4-88.6v2.7Z"/>
            <g>
              <path class="st118" d="M338.8,524.4c-.2,1.5-7.7,9.9-9.3,11.7l-13.2,14.1c-.9,1-12.5,13-10.8,12-.3.2-.8,1-1-.1-.2-.4.3-1.3.7-1.8l9.6-10.2,20.1-21.9c.8-.9-.2-1.7-.6-2.2,1.3-.4,3.2-1,4.4-1.6Z"/>
              <path class="st128" d="M536.9,378.1c0-.1,0-.4-.1-.9,4.4-4.9,8.9-9.2,13.4-13.9l13.4-14.1c6.8-7.2,29-30,33.5-35.9.3-.3.9.2,1.1.8-1.9,1.7-3.3,3.6-5.1,5.5l-20.8,21.7-7.3,8-14.1,14.8c-4.7,4.9-9.1,9.9-14,14.1Z"/>
              <path class="st122" d="M303.8,562.2c0,2.3-2.5,3.2-4,5l-9.2,10.4-12.5,13.2c-2.1,2.2-4.1,3.9-6.3,5.5,4-5.1,8.8-9.7,13.4-14.7-.4-1.3,0-2.2,1-1.1,1.2-.4,1.8-2.1,2.8-3.1l14.8-15.2Z"/>
              <path class="st122" d="M255.4,613.5c-2.1,2.8-4.4,4.9-7,8.1l-5.1,6.1-6.1,5.3c-.9-.4-.5-1-.3-1.4.4-.8,1.5-.9,2-1.4,4.8-4.5,9.5-9.3,13.7-14.6s1.8-1.7,2.8-2Z"/>
              <path class="st122" d="M271.7,596.3c-4.6,5.8-11,12.5-16.4,17.2,2-2.8,13.9-15.3,16.4-17.2Z"/>
              <path class="st5" d="M501.7,425c-4,6.1-9.5,10.9-14.8,15.9,1.5-4.1,5.4-5.5,7.7-8.8s4.7-5.1,7.1-7.1Z"/>
              <path class="st128" d="M523.6,392.2c-.4-1.7,11.4-12.5,13.3-14.1,0,.3.3,1-.1,1.4-4.7,4.3-8.5,9-13.2,12.7Z"/>
              <path class="st128" d="M511.1,405.5c-1.4-.8,8.8-9.8,9.4-10.2-.5,2.6-7.1,8.3-9.4,10.2Z"/>
              <path class="st5" d="M501.7,425c1.6-2.4,3.8-4.5,6.3-6.1-1.3,3.3-3.8,4.7-6.3,6.1Z"/>
              <path class="st128" d="M523.6,392.2c.6,2.3-2.1,2.4-3.1,3.1,0-.3,0-.5,0-.8.4.1.8-.1.8-.4v-1.2c.7-.4,1.5-.1,2.3-.8Z"/>
              <path class="st168" d="M218.3,652.6c-.1-1.4,1.4-2.5,2.5-3.1-.5,1.3-.7,2.9-2.5,3.1Z"/>
              <circle class="st72" cx="317.2" cy="582.4" r=".8"/>
            </g>
          </g>
        </g>
        <path class="st43" d="M658.1,324.9l-25.9,26.6c-4.8,4.9-9.1,9.5-14,14.1-7.6,7.1-14.6,14.5-21.8,21.9l-15.1,15.7c-2.7,2.8-5.2,5.6-8.2,7.8-1.1-2.7,2.4-2.4,3.5-5.2s-.5-2.1-1.5-2.7c3.5-4.9,7.8-9.4,12.7-13.3s7.7-8,11.9-12.2l34.2-33.9,7-6.2c5.1-4.5,3.9-5.8,6.3-5.5,4.4,1.2,7.5-7.1,11-7.1Z"/>
        <path class="st59" d="M420.2,552c-2.7,7.3-14,9.2-21.8,8.4,1-2.6,3.8-3.9,5.6-5.7,2,.4,4.7.2,6.3-1.3,0-.8-.2-1.6.3-1.7.9-.3,5.2-.3,6-.3s2.3-2.4,3.8-.8c-2.1.7-2,1.7-.3,1.5Z"/>
        <g>
          <path class="st52" d="M800.5,163c-2.4,2-5.2,4.2-6.9,7s-4.5,3.9-6.2,6.1c-3,3.9-6.6,6.6-9.6,10.1.2.5,0,.8,0,1.1-2.2,1.5-3.7,4.1-6.3,5.5s-2.1,1.9-2.2,3c-1.9.5-1.9,1.3-3.5,2.9l-13,13.5-5.9,6.2c-2.9,3.1-5.4,5.7-8.3,8.8l-20.8,21.7c-4.9,5.1-7.8,8.3-12.3,12.9l-13.1,13.5-19.4,20c-4.3,4.4-11.1,12.6-15.8,16.4s-4.1,0-6.9,1c1.4.9,3.6.2,5.1.9.7-.1,2.1-1,2.9-1.8l10-10.2c2.7-2.8,5.2-6.2,8.6-8.7s3.1-3.4,4.6-4.9l13.5-13.8c2.9-3,5.5-6.4,8.7-9.3s7-8.5,11.6-11.9,13.4-15.2,18.7-19.5c4.9-3.9,10.3-12.1,16.2-17s19-20,19-20.7c2.6-.6,3.7-4.3,6.1-5.4s2.7-1.8,2.5-3.2c4.9-3.3,7.8-8.8,12.6-12.5s7.3-8.7,10.1-10.2v15.4c-1.1-.3-1.7.8-2.5,1.8-3,4.1-8.3,7.6-13.9,14.1l-4.8,5.4c-.6-.2-.8.3-.8.8l-10.1,10.2c-3.3,3.3-6.2,6.1-9.3,9.5l-5.5,6.2c-3.4,3.7-6.5,6.8-9.5,10.1-.3-.1-.8,0-1.2,0-.7,0,0,1.6-.7,1.8-3.1.9-3.5,3.1-5,4.6l-10.3,10.8c-1.9,2-5.1,3.5-6.3,6.3-.5,0-1.1.3-.8.8-4.8,4.3-9.3,9.3-14,14.2l-16.6,17.1c-3.2,3.3-6.2,6.2-9.4,9.5s-5,3.5-5.5,6.2c.3,0-7.1,5-5.5,5.5-3.6,3-7.2,6.4-10,10.2h-.9c-3.4,0-6.6,8.3-11,7.1-.2-.6-.4-1-1.2-.9-2.4.4-1.1,1.6-5.9,5.7l-6.3,5.4c-11,9.4-20.4,20.3-31.1,31l-20.4,20.6c-1.6,1.7-2.8,3.7-4.9,4.6s-2.5,2.7-3.9,4.1l-24.2,24.9c-3.2,3.3-5,6.2-8,7.8s-.4,1.2-.7,1.6c-.7,1.3-11.3,4.6-11.8,4.9-4.4,3.1-8,7.8-12.3,12.1l-11.8,12c-1.7,1.7-3.3,2.8-5,4.5l-16.5,17.3c-3.5,3.6-7.3,6.8-10,10.8-2.7.5-4.2,3.5-6.3,5.6l-19.4,20.2c-2.4,2.5-4.4,5-6.9,7.7l-4.8,5.1c-1.9,2-4.2,2.9-5.6,5.2s-4.5,4.8-6.9,7.2-1.5-.4-2-.2-.8.7.4.8.2.9,0,1.2c-.5.6-1.2.2-1.7.5-1.7.3-1.8-.8.3-1.5-1.5-1.6-2.8.8-3.8.8s-5,0-6,.3-.4.9-.3,1.7c-1.6,1.5-4.3,1.7-6.3,1.3l54.9-57.3,45.8-48.7,117.5-122,50.5-52.7c1.5-2,.6-5.6,2.5-7.7l30.6-32.9,94.6-100.4v30.1Z"/>
          <g>
            <path class="st119" d="M800.5,164.5c-2.8,1.6-7.5,8.2-10.1,10.2-4.9,3.7-7.8,9.2-12.6,12.5,0-.2.2-.5,0-1.1,3-3.5,6.6-6.2,9.6-10.1s4.6-3.4,6.2-6.1,4.5-5.1,6.9-7v1.6Z"/>
            <path class="st155" d="M800.5,180v.6c-3.5,5.2-13.8,12.5-17.4,18.2s-2.5,2.7-3.8,2.5l4.8-5.4c5.6-6.5,11-10,13.9-14.1s1.3-2.1,2.5-1.8Z"/>
            <path class="st148" d="M769.2,195.8c0,.7-17.9,19.8-19,20.7-5.9,4.9-11.3,13.1-16.2,17-5.3,4.2-15.3,16.9-18.7,19.5s-7.5,8.3-11.6,11.9-5.8,6.3-8.7,9.3l-13.5,13.8c-1.5,1.5-2.3,3.2-4.6,4.9-3.3,2.5-5.9,5.9-8.6,8.7l-10,10.2c-.8.8-2.3,1.7-2.9,1.8-1.6-.7-3.8,0-5.1-.9,2.8-1,5.1.5,6.9-1,4.7-3.7,11.5-12,15.8-16.4l19.4-20,13.1-13.5c4.5-4.7,7.4-7.8,12.3-12.9l20.8-21.7c2.9-3,5.3-5.7,8.3-8.8l5.9-6.2,13-13.5c1.5-1.6,1.6-2.4,3.5-2.9Z"/>
            <path class="st139" d="M647.2,332c-2.4-.3-1.2.9-6.3,5.5l-7,6.2-34.2,33.9c-4.2,4.1-7.6,8.8-11.9,12.2s-9.2,8.4-12.7,13.3c-1.6.1-2.3,1.8-3.9,3.4l-14,14.6c-2.2,2.3-5.1,4.9-7.8,6.3l24.2-24.9c1.3-1.4,2.1-3.3,3.9-4.1s3.2-2.9,4.9-4.6l20.4-20.6c10.6-10.8,20.1-21.6,31.1-31l6.3-5.4c4.8-4.1,3.5-5.3,5.9-5.7s1,.3,1.2.9Z"/>
            <path class="st90" d="M522.8,449.3c-2.6,2.7-6.2,4.8-8.4,8.2s-4,4.8-6.5,6.8-4.2,4.1-6.3,6.3l-20.9,21.7c-.4.4-6.8,8.3-7.2,6.3,2.7-4.1,6.5-7.2,10-10.8l16.5-17.3c1.7-1.8,3.3-2.8,5-4.5l11.8-12c4.2-4.3,7.8-9,12.3-12.1s11.1-3.6,11.8-4.9-.3-1.1.7-1.6c3-1.7,4.8-4.6,8-7.8,1.5.7-10.8,11.7-11.8,12.5-2.3,1.8-5.4,1.3-7.9,2.6s-4.8,4.7-7,6.9Z"/>
            <path class="st90" d="M473.5,498.5c-1.5,2.2-3.4,4.1-5.5,6.3l-18.6,19.5-11.2,11.8-6.2,6.3c-5.7,5.8-11,11.9-17.1,17.2l-8.6,1.5c-3.4.6-6.3,1.3-9.4.9.1-.7.8-1.5,1.6-1.6,7.7.8,19.1-1.1,21.8-8.4.6-.3,1.2,0,1.7-.5s1.3-1.1,0-1.2-.8-.7-.4-.8,1.8.4,2,.2c2.3-2.4,5.2-4.4,6.9-7.2s3.8-3.2,5.6-5.2l4.8-5.1c2.5-2.7,4.5-5.2,6.9-7.7l19.4-20.2c2.1-2.1,3.6-5.1,6.3-5.6Z"/>
            <path class="st58" d="M674.6,309.3c.4-2.6,3.7-4.3,5.5-6.2,3.2-3.3,6.2-6.2,9.4-9.5l16.6-17.1c4.7-4.9,9.2-9.9,14-14.2,0,.1,0,.4.1.9l-16.7,17.2-17,17.7c-1.3,1.4-2.2,3.3-4,4.1-3.5,1.5-4.4,5.7-7.7,7Z"/>
            <path class="st155" d="M744.2,238.1c3-3.3,6.2-6.4,9.5-10.1l5.5-6.2c3.1-3.5,6-6.3,9.3-9.5l10.1-10.2c1,1.7-4.9,4.7-5.6,7.1s-2.5,2.6-3.8,3.9c-2.6,2.6-15,14.7-16.2,16.7-2.1,3.7-5.7,6.1-8.8,8.3Z"/>
            <path class="st155" d="M744.2,238.1l-14.6,15.9c-.8.9-1.7,1.6-2.6,1.3l10.3-10.8c1.5-1.5,1.9-3.7,5-4.6s0-1.8.7-1.8.8,0,1.2,0Z"/>
            <path class="st176" d="M769.2,195.8c0-1.1,1.3-2.5,2.2-3,2.6-1.4,4.1-4,6.3-5.5.2,1.4-.8,2.4-2.5,3.2s-3.5,4.7-6.1,5.4Z"/>
            <path class="st155" d="M720.7,261.5c1.2-2.7,4.3-4.3,6.3-6.3,1.7.4-7.9,9.5-6.3,6.3Z"/>
            <path class="st58" d="M669.1,314.7c-1.6-.5,5.7-5.6,5.5-5.5-.5,2.8-3.2,3.9-5.5,5.5Z"/>
            <path class="st115" d="M646.4,312.8c-1,.6-2.8.8-3,0s-1.3-1.6-.7-2.8c1.3,1.2,2.1,2.4,3.7,2.8Z"/>
          </g>
        </g>
        <g>
          <path class="st194" d="M749.5,268.9c-.4.4-.9.5-.6,1.1-.7-.3-.9.5-.7,1-9.3,7.6-10.2,9.2-16.7,18.5l-10.4,14.8-6.7,8.9-16.8,22.5-28.7,37.3c-4,5.3-9,10.8-15,12.4-1.6,2.7.4,7.2-3,9.5,1.9,2.2.7,5.4-.1,7.6s1.6,4.8-.5,5.2c-7.8,1.5-13.1,5.4-18.1,11.1-8.2,9.5-14.9,19.9-22.1,30.3l-7.3,10.6c-3.9,5.7-7.9,11.6-9.3,18.8s-.8,5.2-4,7.2-3.3,4.1-4.9,4.9c-3.2,1.6-1.8,4.4-2.8,5.9-2.4,3.6-6.4,6-8.9,9s-1.4-.2-1.6.5.1.8-.2,1.1c.2-.3-10.4,11-9,10.1-.7.5-1.7-.6-.9-1.5s1.9-1,1.5-1.8c-1-2.1-8.7,1.3-12.6.3-.2-5.3.4-10.7-.3-16.1-1.3-9.3-1-10.6,5.8-17.5l6.7-6.9c3.5-3.6,7.2-6,9.9-10.9-2.8,1-4.8,3.8-6.7,6.3-4.9,6.3-12.2,11.5-16.4,18.6-1.4,7-.2,15.3,0,22.3l.4,31.2c-4.5,5.7-10.9,10.8-14.1,14.3.2-2-8.2,7.7-7.5,5.9-1.8-2.6-4.2.2-6.7,0-4.8-.5-17.5,7.2-18.4,1.2-4.3,4.7-9.4,8.8-13.4,14.1-2.6,3.4-5.9,5.5-8.8,8.6l-12.5,13.3c-3.8,4.1-7.8,7.6-11.9,11.9l-28.6,30.2c-2.6-1.1-3.2,1.9-4.7,3.2l-19.9,16.4c-1.6,1.3-2.3,3.4-4.4,4.1s-20.4,18.5-22.1,19.5-2.3,3.2-3.9,4.7c-2.7,2.3-4.8,5.3-4.6,8.7h-6.8c-5.6,5.8-10.3,11.9-16.7,17.2s-3.1,3.5-5,5.3l-8.5,8.6c-2.4,2.5-4.5,5.9-7.5,7.4-1,0-.8-.9-1.1-1.9-7.9.6-16.7,6.7-24.1,9-16.8,5.3-19.5,6.4-36.9,3.6,1.5-3.8,1.8-7.5,3.6-10.7l51.5-52.8c1.4.7,2.7-.5,4.7-.6l28.2-21.8c5.4-4.2,21.2-20,20.1-26.9.8-1.6,35.6-4,34-4.7.6.3,1.4,0,1.1-1,4.1-.6,4.5-2.6,8.7-7l41.1-42.4c1.7-1.7,2.7-3.2,4.7-4.8,2.8-2.4,5.1-5.6,7.9-8.4l33.4-33.6c1-1,2.1-2.2,3.7-2.8.7-3,4.1-4,5.7-5.9,4.3-5.3,13.1-12.9,16.7-17.6s1.5-1.1,1.7-1.9c5.4-4.7,10.7-9.4,15.6-15.6,6-10.2-1.4-20.2-9.4-27.7s-1.3-.8-1.9-.6c-1,.4-.6,2.2-2.5,1.6l7-7.7,28.2-29.9c3.1-3.3,8.2-3.8,11.7-5.8l85.2-87,92.9-94.8c2,3.5.7,7.8-.7,11.8l-4.5,12.5c-1,2.8-2,5.9-.5,8.1Z"/>
          <g>
            <path class="st41" d="M572.9,505.5c0,.8-.9,1.7-1.7,1.6.3-.3,0-.8.2-1.1.2-.7,1.3-.1,1.6-.5Z"/>
            <path class="st153" d="M577.6,456.3c0-2,1.9-3,3.5-4.3,2.2-1.8,4-3.8,6-5.9l17.2-18.1,6.4-6.7c3.6-3.8,5.7-5.7,10.1-10.3l14.1-14.7c.4-.5.9-.5,1.1-.6,5.4-2.4-6.3,7.6-5,6.8-4.6,3-7.6,6.9-11.1,11s-4.9,4.2-7.3,6.8l-4.6,4.9-12.1,12.9-8.1,8.9c-5.9,6.5-3.6,3.9-10.2,9.4Z"/>
            <path class="st153" d="M577.6,456.3c0,2.3-2.9,4.2-4.7,5.3,1.1-2.9,3.1-4,4.7-5.3Z"/>
            <path class="st129" d="M697.5,314.1c.8,0,1.3.6,1.4,1.1,0,.9-.7,1.8-1.3,1.9s-1.8-.7-1.9-1.3c-.1-.8.9-1.7,1.8-1.7Z"/>
            <circle class="st166" cx="511.9" cy="552.5" r=".9"/>
          </g>
        </g>
        <path class="st35" d="M530.7,458.3c-1.2,1-2.8,3.2-4.1,4.5l-17.1,17.8-16,16.9-2.7,2.6-15.5,16.6-17.4,16.9c-2.8,2.7-4.9,5.6-7.8,8.1-6.3,5.4-11.4,11.6-17.1,17.9l-14.1,1.5c-.2,0-.5,0-.7,0,.4-1.1-.4-1.7-1.3-1.6s-1.4,0-1.9,0c6.1-5.3,11.3-11.4,17.1-17.2l6.2-6.3,11.2-11.8,18.6-19.5c2.1-2.2,4.1-4.1,5.5-6.3.4,2,6.8-5.9,7.2-6.3l20.9-21.7c2.1-2.2,3.9-4.4,6.3-6.3s4.8-4.1,6.5-6.8,5.7-5.5,8.4-8.2c-.5,1.4,5.4,11.2,7.9,9Z"/>
        <path class="st191" d="M559.6,425c-7.1,8.6-16.4,15.2-23.1,24.6s-3.3,7-5.7,8.7c-2.4,2.2-8.4-7.6-7.9-9,2.2-2.2,4.1-5.3,7-6.9s5.6-.8,7.9-2.6,13.3-11.7,11.8-12.5c2.8-1.3,5.6-4,7.8-6.3,0,1.6.3,4.1,2.3,3.9Z"/>
        <path class="st35" d="M573.1,411.1c-.8,2.4-13.2,13.5-13.5,13.9-2.1.2-2.4-2.3-2.3-3.9l14-14.6c1.5-1.6,2.2-3.2,3.9-3.4,1,.6,2.1,1.4,1.5,2.7-1.2,2.9-4.6,2.6-3.5,5.2Z"/>
        <g>
          <path class="st212" d="M565.2,424.1l-28.2,29.9-7,7.7c1.9.5,1.5-1.3,2.5-1.6s1-.3,1.9.6c8,7.5,15.3,17.5,9.4,27.7-4.9,6.2-10.2,10.9-15.6,15.6-.6-.4-1.1-.9-1.9-.7s-1.4.9-.9,1.8.4,1.3,1.1.8c-3.6,4.7-12.4,12.3-16.7,17.6s-5,2.9-5.7,5.9c-1.6.6-2.7,1.7-3.7,2.8l-33.4,33.6c-2.8,2.8-5.1,6-7.9,8.4s-3,3.1-4.7,4.8l-41.1,42.4c-4.3,4.4-4.6,6.5-8.7,7l-7.1,1c-1.9.3-4.7-2.2-6,0s-3.2.3-4.4.2c-1.6,2-4.4,1.1-5.9,1s-2.3,2.2-4.8,1.1-1-.7-1.8-1-1.2,1.7-2,1.5l-5.5-1c0,2.2-.4,1.9-1.4,1.2,1.7-1.8,2.7-6.4,3.3-9.3.8.2,1.4.9,2,1.2,1,.4,2.1-.8,2.9-1.6l10.8-11.3c2.3-2.4,3.8-4.8,6.5-6.9s7-8.5,11-11.6,22.9-23.9,20.8-30.9c-1.8-.4-3.6.9-4.1-.8l14.1-1.5c5.6-6.3,10.7-12.4,17.1-17.9s5-5.4,7.8-8.1l17.4-16.9,15.5-16.6,2.7-2.6,16-16.9,17.1-17.8c1.3-1.3,2.9-3.5,4.1-4.5,2.4-1.7,4-6.4,5.7-8.7,6.7-9.4,16.1-16,23.1-24.6s12.7-11.5,13.5-13.9c3-2.2,5.6-5.1,8.2-7.8l15.1-15.7c7.2-7.5,14.2-14.8,21.8-21.9s9.2-9.2,14-14.1l25.9-26.6h.9c-8.2,11-20.3,20-29.8,31.3-2,2.4-4.1,4.3-6.4,6.4-9.5,8.7-18.1,18.1-27.1,27.3l-17.4,17.9-3.2,3.2c-3,2.9-5.2,5.9-8.8,8.4s-2.2,3.3-1.1,4.8Z"/>
          <path class="st94" d="M404.6,628.2c.3.9-.5,1.2-1.1,1,1.6.7-33.2,3.1-34,4.7-1.4.3-3.3-.6-4.7-.7-.3-.6.3-1.3,1-.9,1,.7,1.3,1.1,1.4-1.2l5.5,1c.8.2,1.2-1.9,2-1.5s1.3.8,1.8,1c2.5,1.1,3.6-1.3,4.8-1.1s4.3,1,5.9-1c1.2,0,3.4,1.6,4.4-.2s4.1.3,6,0l7.1-1Z"/>
          <path class="st6" d="M528.2,503.9c-.2.8-1.2,1.3-1.7,1.9-.7.5-.9-.4-1.1-.8-.5-.8.3-1.6.9-1.8s1.3.3,1.9.7Z"/>
          <path class="st10" d="M494.1,498.7c2.7-3.9,6.1-7.1,10.1-10.3-2.5,4.2-5.8,7.3-10.1,10.3Z"/>
        </g>
        <path class="st4" d="M414.9,559.6c.6,0,1.2.1,1.9,0s1.7.5,1.3,1.6c-2.9.2-5.9-.4-9.1.5,1.8-.5-15.2,2.4-13,1-.3-.5.3-.7.9-.6,3.1.4,6-.3,9.4-.9l8.6-1.5Z"/>
        <path class="st12" d="M195.1,652.7c0,0,0-.4-.2-1l12.8-12.4c.5,1.5-.4,2.2-1.6,3.3l-10.9,10.1Z"/>
        <path class="st114" d="M520.5,394.5c-1,0-.9-.6-.4-.8l1.2-.7v1.2c0,.3-.4.5-.8.4Z"/>
      </g>
      <path class="st157" d="M494.3,325.1c-2.1.4-4.1,2-5.9,3.7-1.3,0-1.9.3-1.3,1.8-3.9,4-7.1,8.2-11.2,11.3-1.2,0,1.6-12.1.7-12.4l.8-1.6c.9,0,1.2-1.1,1.6-1.6,1.6-1.3,4.5-3.1,4.8-5.4.6.3,1-.3.7-.7l10.3-10c-.3-.6-.2-.9-.2-1,2-1.5,8-6.8,8.6-9.4,3.1-2.2,5.4-5.3,8.5-8s0-1.1.1-1.4c2.2-1.6,5.1-3.7,5.6-6.4l10.9-11.5c1.2-1.3,2.3-2.5,3.7-2.9-1.7,3.9-1,8.3-2.5,12.7l-29.6,33c-2.7,3-3.5,6.8-5.6,9.8Z"/>
      <path class="st209" d="M517.5,282.7c.4.5,0,.9,0,1.4-1.7,1.8-3.9,3.2-5.7,5.5.2.5.2.8.1.9-2,1.5-8,6.8-8.6,9.4-3.1,2.2-5.4,5.3-8.5,8s0,1.1-.1,1.4c0,0-13.9,12.3-10.1,11,.3.5-.2,1.1-.7.7.3-1.4-8.2,7-4.8,5.4-.4.5-.6,1.6-1.6,1.6s-.8,0-1.2,0-.5.6-.4,1.1.3.5.8.4c.9.3-1.9,12.4-.7,12.4-.9,1.3-2.2,2.9-3.4,4,.2-1.8,1.1-3.6,1.5-5.4l1.7-9.2c-2.9-.6-1-.7-.7-3.8s-7.5,4.9-8,6.5c-.3,0-.8-.3-1-.1s-.3,1-1.1,1c0-1.1.6-1.9,0-2.5,2.3-1.4,4.7-3.6,6.2-6.1s4.5-3.4,9.7-11c2.5-2.2,5.5-4.7,7.7-7.1.8.2.7,1.1,1.8,2,.5-2.3,27.4-26.5,20.7-25.5,2.2-4.9,2.2-1.7,4.1-6.1.3,0,.5,0,.8,0,2.1.3.7,2.6,1.7,3.9Z"/>
      <path class="st68" d="M474.1,340.6c-.3,1.8-1.3,3.6-1.5,5.4l-15.9,15.4c-.6.6-1.3,1.2-2.3,1.1s-.5-1.3-1.3-1.5c1.6-1.3,3.2-3.8,4-5.6-.4.9,9.4-8.5,7.2-7.7,4.2-2.5,4.3-8.3,9.8-7.1Z"/>
      <path class="st174" d="M532,269.6c-1.4.5-2.4,1.6-3.7,2.9l-10.9,11.5c0-.5.5-.9,0-1.4l13.2-14c1.1-1.1,1.6-2.1,1.5-3.3,1.5,1.3.3,2.8-.3,4.2Z"/>
      <path class="st134" d="M510.9,284.8c-3.6,1.5-5.5,5.8-8.5,8.5-5.4,4.9-9.5,10.1-14,15s-5.2,5-7.7,7.1c3.4-5,8.5-8.9,11.8-13.9,6.9-5,15.4-16.7,22.4-22.8-1.9,4.4-1.9,1.2-4.1,6.1Z"/>
      <path class="st134" d="M464.9,332.6c.4-2.6,3.6-3.6,4.7-6.1s4.2-3.4,5.4-5.3,3.9-4.1,5.8-5.7c-5.2,7.6-8.5,9.1-9.7,11s-3.9,4.7-6.2,6.1Z"/>
      <path class="st110" d="M453.1,246c0,2.8-3,4.9-4.5,4s-1.9-2-1.4-2.7c.1-1.2,1.4-2.3,2.4-2.8,1.5-.7,2.4.7,3.4,1.4Z"/>
      <path class="st204" d="M439.1,304.5c1.5-2.8,4.3-4.7,6.8-7.3.1,2.4-2.5,1.9-3,4.3s-2.8,2.1-3.8,2.9Z"/>
      <path class="st134" d="M515.8,278.8c-.3,0-.5,0-.8,0,.7-1.6.6-3.1.8-4.7h.8c-.2,1.6.4,3.4-.8,4.8Z"/>
      <path class="st131" d="M546.5,66.1c.4.2.5.4.5.7,0,.4-.2.7-.4.7-.8,0-1-.2-1.1-.5-.2-.8.4-1.5,1-1Z"/>
      <path class="st200" d="M457.1,355.4c1.4-3,4.2-6,7.2-7.7,2.2-.7-7.6,8.6-7.2,7.7Z"/>
      <path class="st121" d="M484.5,320.3c-3.8,1.3,10.1-11,10.1-11,0,0,0,.4.2,1l-10.3,10Z"/>
      <path class="st121" d="M494.6,309.3c.1-.3-.3-1,.1-1.4,3.1-2.7,5.4-5.9,8.5-8-.6,2.6-6.6,7.9-8.6,9.4Z"/>
      <path class="st98" d="M503.3,299.9c.6-2.6,6.6-7.9,8.6-9.4,0,.3.3,1-.1,1.4-3.1,2.7-5.4,5.9-8.5,8Z"/>
      <path class="st11" d="M479,326.5c-3.4,1.6,5.1-6.8,4.8-5.4-.3,2.3-3.2,4.1-4.8,5.4Z"/>
      <path class="st174" d="M511.9,290.5c0-.1,0-.4-.1-.9,1.8-2.3,4-3.7,5.7-5.5-.5,2.7-3.4,4.8-5.6,6.4Z"/>
      <path class="st199" d="M477.4,328l-.8,1.6c-.4,0-.7-.2-.8-.4-.1-.5,0-1.1.4-1.1s.8,0,1.2,0Z"/>
      <path class="st37" d="M488.4,308.4c4.4-4.9,8.6-10.1,14-15s4.9-7.1,8.5-8.5c6.7-.9-20.2,23.2-20.7,25.5-1.1-.8-1-1.8-1.8-2Z"/>
    </g>
  </g>
</svg>